<svg width="27" height="24" viewBox="0 0 27 24" fill="none" xmlns="http://www.w3.org/2000/svg">
<g id="Message">
<path id="Vector" d="M1.501 22.4991L0.106053 21.9441C0.0063806 22.1949 -0.0237848 22.468 0.0187362 22.7345C0.0612572 23.001 0.17489 23.251 0.347655 23.4584C0.520421 23.6657 0.745919 23.8225 1.00038 23.9124C1.25484 24.0023 1.52884 24.0219 1.79349 23.9691L1.501 22.4991ZM8.55972 21.0952L9.27069 19.7737L8.79521 19.5187L8.26723 19.6237L8.55972 21.0952ZM3.9369 16.3749L5.33185 16.9298L5.57634 16.3089L5.28235 15.7104L3.9369 16.3749ZM24.0001 11.9995C24.0001 16.8683 19.7208 20.9992 14.2055 20.9992V23.9991C21.1667 23.9991 27 18.7283 27 11.9995H24.0001ZM4.41238 11.9995C4.41238 7.13072 8.69322 2.99988 14.207 2.99988V0C7.24577 0 1.411 5.27079 1.411 11.9995H4.41238ZM14.207 2.99988C19.7208 2.99988 24.0001 7.13072 24.0001 11.9995H27C27 5.27079 21.1682 0 14.207 0V2.99988ZM14.2055 20.9992C12.3981 20.9992 10.7151 20.5492 9.27069 19.7737L7.84875 22.4151C9.80444 23.4611 11.9877 24.0054 14.2055 23.9991V20.9992ZM1.79349 23.9691L8.85221 22.5651L8.26723 19.6237L1.20851 21.0277L1.79349 23.9706V23.9691ZM5.28235 15.7104C4.70949 14.5572 4.41272 13.2871 4.41238 11.9995H1.411C1.411 13.7995 1.83398 15.5064 2.58996 17.0393L5.28235 15.7104ZM2.54346 15.8199L0.106053 21.9456L2.89294 23.0526L5.32885 16.9283L2.54196 15.8199H2.54346Z" fill="#857EB9"/>
<path id="Vector_2" d="M9.00067 13.4995C9.82907 13.4995 10.5006 12.8279 10.5006 11.9995C10.5006 11.1711 9.82907 10.4996 9.00067 10.4996C8.17228 10.4996 7.50073 11.1711 7.50073 11.9995C7.50073 12.8279 8.17228 13.4995 9.00067 13.4995Z" fill="#857EB9"/>
<path id="Vector_3" d="M14.2504 13.4995C15.0788 13.4995 15.7504 12.8279 15.7504 11.9995C15.7504 11.1711 15.0788 10.4996 14.2504 10.4996C13.422 10.4996 12.7505 11.1711 12.7505 11.9995C12.7505 12.8279 13.422 13.4995 14.2504 13.4995Z" fill="#857EB9"/>
<path id="Vector_4" d="M19.5004 13.4995C20.3288 13.4995 21.0004 12.8279 21.0004 11.9995C21.0004 11.1711 20.3288 10.4996 19.5004 10.4996C18.672 10.4996 18.0005 11.1711 18.0005 11.9995C18.0005 12.8279 18.672 13.4995 19.5004 13.4995Z" fill="#857EB9"/>
</g>
</svg>
