<svg width="24" height="24" viewBox="0 0 24 24" fill="none" xmlns="http://www.w3.org/2000/svg">
<path id="Discover" d="M8.72727 0H2.18182C1.60316 0 1.04821 0.229869 0.63904 0.63904C0.229869 1.04821 0 1.60316 0 2.18182V8.72727C0 9.30593 0.229869 9.86088 0.63904 10.2701C1.04821 10.6792 1.60316 10.9091 2.18182 10.9091H8.72727C9.30593 10.9091 9.86088 10.6792 10.2701 10.2701C10.6792 9.86088 10.9091 9.30593 10.9091 8.72727V2.18182C10.9091 1.60316 10.6792 1.04821 10.2701 0.63904C9.86088 0.229869 9.30593 0 8.72727 0ZM8.72727 8.72727H2.18182V2.18182H8.72727V8.72727ZM21.8182 0H15.2727C14.6941 0 14.1391 0.229869 13.7299 0.63904C13.3208 1.04821 13.0909 1.60316 13.0909 2.18182V8.72727C13.0909 9.30593 13.3208 9.86088 13.7299 10.2701C14.1391 10.6792 14.6941 10.9091 15.2727 10.9091H21.8182C22.3968 10.9091 22.9518 10.6792 23.361 10.2701C23.7701 9.86088 24 9.30593 24 8.72727V2.18182C24 1.60316 23.7701 1.04821 23.361 0.63904C22.9518 0.229869 22.3968 0 21.8182 0ZM21.8182 8.72727H15.2727V2.18182H21.8182V8.72727ZM8.72727 13.0909H2.18182C1.60316 13.0909 1.04821 13.3208 0.63904 13.7299C0.229869 14.1391 0 14.6941 0 15.2727V21.8182C0 22.3968 0.229869 22.9518 0.63904 23.361C1.04821 23.7701 1.60316 24 2.18182 24H8.72727C9.30593 24 9.86088 23.7701 10.2701 23.361C10.6792 22.9518 10.9091 22.3968 10.9091 21.8182V15.2727C10.9091 14.6941 10.6792 14.1391 10.2701 13.7299C9.86088 13.3208 9.30593 13.0909 8.72727 13.0909ZM8.72727 21.8182H2.18182V15.2727H8.72727V21.8182ZM21.8182 13.0909H15.2727C14.6941 13.0909 14.1391 13.3208 13.7299 13.7299C13.3208 14.1391 13.0909 14.6941 13.0909 15.2727V21.8182C13.0909 22.3968 13.3208 22.9518 13.7299 23.361C14.1391 23.7701 14.6941 24 15.2727 24H21.8182C22.3968 24 22.9518 23.7701 23.361 23.361C23.7701 22.9518 24 22.3968 24 21.8182V15.2727C24 14.6941 23.7701 14.1391 23.361 13.7299C22.9518 13.3208 22.3968 13.0909 21.8182 13.0909ZM21.8182 21.8182H15.2727V15.2727H21.8182V21.8182Z" fill="#857EB9"/>
</svg>
