<svg width="61" height="34" viewBox="0 0 61 34" fill="none" xmlns="http://www.w3.org/2000/svg">
<path id="Vector" fill-rule="evenodd" clip-rule="evenodd" d="M40.6029 1.50381C40.6029 1.10498 40.7613 0.722475 41.0433 0.440456C41.3254 0.158437 41.7079 0 42.1067 0H48.1219C48.5208 0 48.9033 0.158437 49.1853 0.440456C49.4673 0.722475 49.6257 1.10498 49.6257 1.50381V4.51143H54.1372C54.536 4.51143 54.9185 4.66987 55.2005 4.95189C55.4825 5.23391 55.641 5.61641 55.641 6.01524V15.0381H60.1524V18.0457H55.641V27.0686C55.641 27.4674 55.4825 27.8499 55.2005 28.1319C54.9185 28.414 54.536 28.5724 54.1372 28.5724H49.6257V31.58C49.6257 31.9789 49.4673 32.3614 49.1853 32.6434C48.9033 32.9254 48.5208 33.0838 48.1219 33.0838H42.1067C41.7079 33.0838 41.3254 32.9254 41.0433 32.6434C40.7613 32.3614 40.6029 31.9789 40.6029 31.58V18.0457H19.5495V31.58C19.5495 31.9789 19.3911 32.3614 19.1091 32.6434C18.8271 32.9254 18.4446 33.0838 18.0457 33.0838H12.0305C11.6316 33.0838 11.2491 32.9254 10.9671 32.6434C10.6851 32.3614 10.5267 31.9789 10.5267 31.58V28.5724H6.01524C5.61641 28.5724 5.23391 28.414 4.95189 28.1319C4.66987 27.8499 4.51143 27.4674 4.51143 27.0686V18.0457H0V15.0381H4.51143V6.01524C4.51143 5.61641 4.66987 5.23391 4.95189 4.95189C5.23391 4.66987 5.61641 4.51143 6.01524 4.51143H10.5267V1.50381C10.5267 1.10498 10.6851 0.722475 10.9671 0.440456C11.2491 0.158437 11.6316 0 12.0305 0H18.0457C18.4446 0 18.8271 0.158437 19.1091 0.440456C19.3911 0.722475 19.5495 1.10498 19.5495 1.50381V15.0381H40.6029V1.50381ZM13.5343 30.0762H16.5419V3.00762H13.5343V30.0762ZM10.5267 7.51905H7.51905V25.5648H10.5267V7.51905ZM49.6257 25.5648V7.51905H52.6334V25.5648H49.6257ZM46.6181 3.00762V30.0762H43.6105V3.00762H46.6181Z" fill="#857EB9"/>
</svg>
