<svg width="35" height="39" viewBox="0 0 35 39" fill="none" xmlns="http://www.w3.org/2000/svg">
<path id="Vector" d="M2 36.9978V34.8104C2 30.7495 3.61317 26.855 6.48464 23.9835C9.35611 21.1121 13.2507 19.4989 17.3115 19.4989M17.3115 19.4989C21.3724 19.4989 25.2669 21.1121 28.1384 23.9835C31.0099 26.855 32.623 30.7495 32.623 34.8104V36.9978M17.3115 19.4989C19.632 19.4989 21.8575 18.5771 23.4983 16.9362C25.1392 15.2954 26.061 13.0699 26.061 10.7494C26.061 8.42895 25.1392 6.20349 23.4983 4.56265C21.8575 2.92181 19.632 2 17.3115 2C14.991 2 12.7656 2.92181 11.1247 4.56265C9.48389 6.20349 8.56208 8.42895 8.56208 10.7494C8.56208 13.0699 9.48389 15.2954 11.1247 16.9362C12.7656 18.5771 14.991 19.4989 17.3115 19.4989Z" stroke="#857EB9" stroke-width="3.28104" stroke-linecap="round" stroke-linejoin="round"/>
</svg>
