<svg width="27" height="27" viewBox="0 0 27 27" fill="none" xmlns="http://www.w3.org/2000/svg">
<path id="Vector" d="M12.1935 3.04839V1.30645C12.1935 0.959959 12.3312 0.627658 12.5762 0.382651C12.8212 0.137644 13.1535 0 13.5 0C13.8465 0 14.1788 0.137644 14.4238 0.382651C14.6688 0.627658 14.8065 0.959959 14.8065 1.30645V3.04839C14.8065 3.39488 14.6688 3.72718 14.4238 3.97219C14.1788 4.2172 13.8465 4.35484 13.5 4.35484C13.1535 4.35484 12.8212 4.2172 12.5762 3.97219C12.3312 3.72718 12.1935 3.39488 12.1935 3.04839ZM20.9032 13.5C20.9032 14.9642 20.469 16.3956 19.6556 17.613C18.8421 18.8305 17.6859 19.7794 16.3331 20.3397C14.9803 20.9 13.4918 21.0466 12.0557 20.761C10.6196 20.4753 9.30049 19.7702 8.26513 18.7349C7.22977 17.6995 6.52468 16.3804 6.23903 14.9443C5.95337 13.5082 6.09998 12.0197 6.66031 10.6669C7.22064 9.31415 8.16953 8.15792 9.38699 7.34444C10.6044 6.53097 12.0358 6.09677 13.5 6.09677C15.4628 6.09879 17.3447 6.87942 18.7326 8.26736C20.1206 9.65529 20.9012 11.5372 20.9032 13.5ZM18.2903 13.5C18.2903 12.5526 18.0094 11.6264 17.483 10.8386C16.9566 10.0509 16.2085 9.43689 15.3332 9.07432C14.4579 8.71175 13.4947 8.61689 12.5655 8.80172C11.6362 8.98656 10.7827 9.44279 10.1127 10.1127C9.44279 10.7827 8.98656 11.6362 8.80172 12.5655C8.61689 13.4947 8.71175 14.4579 9.07432 15.3332C9.43689 16.2085 10.0509 16.9566 10.8386 17.483C11.6264 18.0094 12.5526 18.2903 13.5 18.2903C14.77 18.2889 15.9876 17.7837 16.8857 16.8857C17.7837 15.9876 18.2889 14.77 18.2903 13.5ZM5.17246 7.02109C5.29399 7.14261 5.43826 7.23901 5.59704 7.30478C5.75582 7.37055 5.926 7.4044 6.09786 7.4044C6.26973 7.4044 6.43991 7.37055 6.59869 7.30478C6.75747 7.23901 6.90174 7.14261 7.02327 7.02109C7.14479 6.89956 7.24119 6.75529 7.30696 6.59651C7.37273 6.43773 7.40658 6.26755 7.40658 6.09569C7.40658 5.92382 7.37273 5.75364 7.30696 5.59486C7.24119 5.43608 7.14479 5.29181 7.02327 5.17028L5.71681 3.86383C5.47138 3.6184 5.1385 3.48052 4.79141 3.48052C4.44432 3.48052 4.11144 3.6184 3.86601 3.86383C3.62058 4.10926 3.48269 4.44214 3.48269 4.78923C3.48269 5.13633 3.62058 5.4692 3.86601 5.71464L5.17246 7.02109ZM5.17246 19.9767L3.86601 21.2832C3.74448 21.4047 3.64808 21.549 3.58231 21.7078C3.51654 21.8665 3.48269 22.0367 3.48269 22.2086C3.48269 22.3805 3.51654 22.5506 3.58231 22.7094C3.64808 22.8682 3.74448 23.0125 3.86601 23.134C4.11144 23.3794 4.44432 23.5173 4.79141 23.5173C4.96327 23.5173 5.13346 23.4835 5.29224 23.4177C5.45102 23.3519 5.59529 23.2555 5.71681 23.134L7.02327 21.8275C7.2687 21.5821 7.40658 21.2492 7.40658 20.9021C7.40658 20.555 7.2687 20.2222 7.02327 19.9767C6.77783 19.7313 6.44496 19.5934 6.09786 19.5934C5.75077 19.5934 5.41789 19.7313 5.17246 19.9767ZM20.9032 7.40323C21.0748 7.40336 21.2448 7.36968 21.4034 7.30411C21.562 7.23855 21.7061 7.14237 21.8275 7.02109L23.134 5.71464C23.2555 5.59311 23.3519 5.44884 23.4177 5.29006C23.4835 5.13128 23.5173 4.9611 23.5173 4.78923C23.5173 4.61737 23.4835 4.44719 23.4177 4.28841C23.3519 4.12963 23.2555 3.98536 23.134 3.86383C23.0125 3.74231 22.8682 3.64591 22.7094 3.58014C22.5506 3.51437 22.3805 3.48052 22.2086 3.48052C22.0367 3.48052 21.8665 3.51437 21.7078 3.58014C21.549 3.64591 21.4047 3.74231 21.2832 3.86383L19.9767 5.17028C19.7929 5.35301 19.6676 5.58628 19.6168 5.84042C19.5659 6.09456 19.5918 6.35808 19.6911 6.59747C19.7904 6.83686 19.9587 7.0413 20.1746 7.18478C20.3904 7.32826 20.6441 7.4043 20.9032 7.40323ZM21.8275 19.9789C21.5821 19.7335 21.2492 19.5956 20.9021 19.5956C20.555 19.5956 20.2222 19.7335 19.9767 19.9789C19.7313 20.2243 19.5934 20.5572 19.5934 20.9043C19.5934 21.2514 19.7313 21.5843 19.9767 21.8297L21.2832 23.1362C21.5286 23.3816 21.8615 23.5195 22.2086 23.5195C22.5557 23.5195 22.8886 23.3816 23.134 23.1362C23.3794 22.8907 23.5173 22.5579 23.5173 22.2108C23.5173 21.8637 23.3794 21.5308 23.134 21.2854L21.8275 19.9789ZM4.35484 13.5C4.35484 13.1535 4.2172 12.8212 3.97219 12.5762C3.72718 12.3312 3.39488 12.1935 3.04839 12.1935H1.30645C0.959959 12.1935 0.627658 12.3312 0.382651 12.5762C0.137644 12.8212 0 13.1535 0 13.5C0 13.8465 0.137644 14.1788 0.382651 14.4238C0.627658 14.6688 0.959959 14.8065 1.30645 14.8065H3.04839C3.39488 14.8065 3.72718 14.6688 3.97219 14.4238C4.2172 14.1788 4.35484 13.8465 4.35484 13.5ZM13.5 22.6452C13.1535 22.6452 12.8212 22.7828 12.5762 23.0278C12.3312 23.2728 12.1935 23.6051 12.1935 23.9516V25.6936C12.1935 26.04 12.3312 26.3723 12.5762 26.6173C12.8212 26.8624 13.1535 27 13.5 27C13.8465 27 14.1788 26.8624 14.4238 26.6173C14.6688 26.3723 14.8065 26.04 14.8065 25.6936V23.9516C14.8065 23.6051 14.6688 23.2728 14.4238 23.0278C14.1788 22.7828 13.8465 22.6452 13.5 22.6452ZM25.6936 12.1935H23.9516C23.6051 12.1935 23.2728 12.3312 23.0278 12.5762C22.7828 12.8212 22.6452 13.1535 22.6452 13.5C22.6452 13.8465 22.7828 14.1788 23.0278 14.4238C23.2728 14.6688 23.6051 14.8065 23.9516 14.8065H25.6936C26.04 14.8065 26.3723 14.6688 26.6173 14.4238C26.8624 14.1788 27 13.8465 27 13.5C27 13.1535 26.8624 12.8212 26.6173 12.5762C26.3723 12.3312 26.04 12.1935 25.6936 12.1935Z" fill="#857EB9"/>
</svg>
