<svg width="48" height="44" viewBox="0 0 48 44" fill="none" xmlns="http://www.w3.org/2000/svg">
<g id="Group 3">
<path id="Vector" d="M41.3725 10.7495H6.37472C3.95863 10.7495 2 12.7081 2 15.1242V36.9978C2 39.4139 3.95863 41.3725 6.37472 41.3725H41.3725C43.7886 41.3725 45.7472 39.4139 45.7472 36.9978V15.1242C45.7472 12.7081 43.7886 10.7495 41.3725 10.7495Z" stroke="#857EB9" stroke-width="3.28104" stroke-linecap="round" stroke-linejoin="round"/>
<path id="Vector_2" d="M32.6232 41.3725V6.37472C32.6232 5.21447 32.1622 4.10175 31.3418 3.28133C30.5214 2.46091 29.4087 2 28.2484 2H19.499C18.3387 2 17.226 2.46091 16.4056 3.28133C15.5852 4.10175 15.1243 5.21447 15.1243 6.37472V41.3725" stroke="#857EB9" stroke-width="3.28104" stroke-linecap="round" stroke-linejoin="round"/>
</g>
</svg>
