<svg width="97" height="97" viewBox="0 0 97 97" fill="none" xmlns="http://www.w3.org/2000/svg">
<g clip-path="url(#clip0_110_393)">
<path d="M48.5 97C75.2858 97 97 75.2858 97 48.5C97 21.7142 75.2858 0 48.5 0C21.7142 0 0 21.7142 0 48.5C0 75.2858 21.7142 97 48.5 97Z" fill="white"/>
<path opacity="0.6" d="M86.4497 18.3012C89.5718 24.7101 91.3258 31.9078 91.3258 39.516C91.3258 66.3019 69.6117 88.016 42.8258 88.016C27.4575 88.016 13.7621 80.8659 4.87598 69.7148C12.7468 85.8682 29.3222 97 48.4998 97C75.2857 97 96.9998 75.2859 96.9998 48.5C96.9998 37.0825 93.0516 26.5877 86.4497 18.3012Z" fill="#DBDFF0"/>
<g opacity="0.6">
<path d="M40.1583 11.1292C42.1762 14.3157 37.0401 18.0091 30.9028 21.8879C24.7655 25.7653 19.9524 28.3585 17.9333 25.1721C15.9154 21.9857 19.2536 16.2589 25.3909 12.3814C31.5282 8.50394 38.1391 7.94285 40.157 11.1292H40.1583Z" fill="#DBDFF0"/>
<path d="M16.7668 35.8343C18.0673 33.335 17.4553 30.4419 15.3999 29.3724C13.3445 28.3029 10.624 29.4619 9.32349 31.9612C8.02301 34.4605 8.63499 37.3536 10.6904 38.4231C12.7458 39.4926 15.4663 38.3336 16.7668 35.8343Z" fill="#DBDFF0"/>
</g>
<path d="M50.7521 75.1585C50.8834 75.1585 51.0146 75.2048 51.1202 75.2975C51.3492 75.5008 51.3711 75.8521 51.1678 76.0825C51.1214 76.134 50.0301 77.3488 48.4768 77.3732C47.5258 77.3874 46.6172 76.9589 45.8013 76.0953C45.5903 75.8714 45.6006 75.5201 45.8232 75.309C46.0458 75.098 46.3985 75.1083 46.6095 75.3309C47.2028 75.9576 47.8231 76.2626 48.4588 76.2614C49.5102 76.2446 50.3274 75.3541 50.3351 75.3451C50.4445 75.2215 50.5977 75.1572 50.7521 75.1572V75.1585Z" fill="#231F20"/>
<path d="M69.7647 77.3224C72.5462 76.6659 74.2689 73.8789 73.6124 71.0974C72.9559 68.3159 70.1689 66.5933 67.3874 67.2498C64.6059 67.9063 62.8833 70.6933 63.5398 73.4748C64.1962 76.2563 66.9833 77.9789 69.7647 77.3224Z" fill="white"/>
<path d="M29.774 77.3202C32.5555 76.6637 34.2781 73.8766 33.6217 71.0952C32.9652 68.3137 30.1781 66.591 27.3967 67.2475C24.6152 67.904 22.8925 70.691 23.549 73.4725C24.2055 76.254 26.9925 77.9766 29.774 77.3202Z" fill="white"/>
<path d="M68.5789 68.6351C66.6099 68.6351 65.0142 70.2309 65.0142 72.1999C65.0142 74.1688 66.6112 75.7646 68.5789 75.7646C70.5466 75.7646 72.1437 74.1688 72.1437 72.1999C72.1437 70.2309 70.5479 68.6351 68.5789 68.6351ZM68.1555 71.797C67.5146 72.2076 66.7296 72.1265 66.4027 71.6169C66.0759 71.106 66.3307 70.3596 66.9716 69.949C67.6124 69.5385 68.3975 69.6196 68.7243 70.1292C69.0512 70.6388 68.7964 71.3865 68.1555 71.797ZM70.5608 74.403C70.3034 74.6077 69.9636 74.6077 69.8015 74.403C69.6393 74.1984 69.7165 73.8677 69.9739 73.6631C70.2313 73.4585 70.5711 73.4585 70.7332 73.6631C70.8954 73.8677 70.8181 74.1984 70.5608 74.403Z" fill="#231F20"/>
<path d="M28.5892 68.6351C26.6202 68.6351 25.0244 70.2309 25.0244 72.1999C25.0244 74.1688 26.6202 75.7646 28.5892 75.7646C30.5582 75.7646 32.1539 74.1688 32.1539 72.1999C32.1539 70.2309 30.5582 68.6351 28.5892 68.6351ZM27.9959 71.797C27.355 72.2076 26.57 72.1265 26.2431 71.6169C25.9162 71.106 26.1711 70.3596 26.8119 69.949C27.4528 69.5385 28.2378 69.6196 28.5647 70.1292C28.8916 70.6401 28.6368 71.3865 27.9959 71.797ZM30.2635 74.403C30.0061 74.6077 29.6663 74.6077 29.5042 74.403C29.342 74.1984 29.4192 73.8677 29.6766 73.6631C29.934 73.4585 30.2737 73.4585 30.4359 73.6631C30.598 73.8677 30.5208 74.1984 30.2635 74.403Z" fill="#231F20"/>
</g>
<defs>
<clipPath id="clip0_110_393">
<rect width="97" height="97" fill="white"/>
</clipPath>
</defs>
</svg>
