<svg width="63" height="56" viewBox="0 0 63 56" fill="none" xmlns="http://www.w3.org/2000/svg">
<g id="Group 4">
<g id="Vector">
<mask id="path-1-inside-1_145_574" fill="white">
<path d="M39.9 55.286H33.6C32.4864 55.285 31.4188 54.883 30.6314 54.1682C29.844 53.4533 29.4011 52.4841 29.4 51.4732V41.9411H33.6V51.4732H39.9V41.9411H44.1V34.3155C44.0994 33.81 43.878 33.3254 43.4843 32.968C43.0906 32.6106 42.5568 32.4096 42 32.4091H23.688L19.488 20.9706H6.3C5.74322 20.9711 5.2094 21.1721 4.81569 21.5295C4.42198 21.8869 4.20056 22.3715 4.2 22.877V34.3155H8.4V51.4732H16.8V38.1283H21V51.4732C20.9989 52.4841 20.556 53.4533 19.7686 54.1682C18.9812 54.883 17.9136 55.285 16.8 55.286H8.4C7.28643 55.285 6.21879 54.883 5.43138 54.1682C4.64397 53.4533 4.20111 52.4841 4.2 51.4732V38.1283C3.08643 38.1273 2.01879 37.7253 1.23138 37.0104C0.443968 36.2956 0.0011119 35.3264 0 34.3155V22.877C0.00166785 21.3606 0.665952 19.9068 1.84707 18.8345C3.02819 17.7623 4.62965 17.1593 6.3 17.1577H19.488C20.3694 17.1572 21.2286 17.4087 21.9436 17.8765C22.6587 18.3443 23.1933 19.0046 23.4717 19.7638L26.712 28.5962H42C43.6703 28.5977 45.2718 29.2008 46.4529 30.273C47.634 31.3453 48.2983 32.7991 48.3 34.3155V41.9411C48.2989 42.952 47.856 43.9213 47.0686 44.6361C46.2812 45.3509 45.2136 45.753 44.1 45.754V51.4732C44.0989 52.4841 43.656 53.4533 42.8686 54.1682C42.0812 54.883 41.0136 55.285 39.9 55.286ZM56.7 55.286H52.5V34.3155H58.8V22.877C58.7994 22.3715 58.578 21.8869 58.1843 21.5295C57.7906 21.1721 57.2568 20.9711 56.7 20.9706H48.3V17.1577H56.7C58.3703 17.1593 59.9718 17.7623 61.1529 18.8345C62.334 19.9068 62.9983 21.3606 63 22.877V34.3155C62.9989 35.3264 62.556 36.2956 61.7686 37.0104C60.9812 37.7253 59.9136 38.1273 58.8 38.1283H56.7V55.286ZM12.6 15.2513C10.9386 15.2513 9.31458 14.8041 7.93321 13.9662C6.55184 13.1282 5.47519 11.9373 4.83941 10.5439C4.20364 9.15047 4.03729 7.6172 4.3614 6.13797C4.68552 4.65874 5.48554 3.29998 6.6603 2.23351C7.83506 1.16704 9.3318 0.440766 10.9612 0.146528C12.5907 -0.147709 14.2796 0.00330405 15.8145 0.580472C17.3494 1.15764 18.6613 2.13504 19.5843 3.38907C20.5073 4.64311 21 6.11745 21 7.62566C20.9972 9.64734 20.1113 11.5855 18.5366 13.015C16.9619 14.4446 14.827 15.2488 12.6 15.2513ZM12.6 3.81283C11.7693 3.81283 10.9573 4.03645 10.2666 4.45541C9.57592 4.87437 9.03759 5.46985 8.71971 6.16656C8.40182 6.86326 8.31864 7.62989 8.4807 8.36951C8.64276 9.10913 9.04277 9.78851 9.63015 10.3217C10.2175 10.855 10.9659 11.2181 11.7806 11.3652C12.5953 11.5123 13.4398 11.4368 14.2073 11.1483C14.9747 10.8597 15.6307 10.371 16.0922 9.74396C16.5537 9.11694 16.8 8.37977 16.8 7.62566C16.7989 6.61475 16.356 5.64553 15.5686 4.9307C14.7812 4.21587 13.7136 3.81384 12.6 3.81283ZM50.4 15.2513C48.7386 15.2513 47.1146 14.8041 45.7332 13.9662C44.3518 13.1282 43.2752 11.9373 42.6394 10.5439C42.0036 9.15047 41.8373 7.6172 42.1614 6.13797C42.4855 4.65874 43.2855 3.29998 44.4603 2.23351C45.6351 1.16704 47.1318 0.440766 48.7612 0.146528C50.3907 -0.147709 52.0796 0.00330405 53.6145 0.580472C55.1494 1.15764 56.4613 2.13504 57.3843 3.38907C58.3073 4.64311 58.8 6.11745 58.8 7.62566C58.7972 9.64734 57.9113 11.5855 56.3366 13.015C54.7619 14.4446 52.627 15.2488 50.4 15.2513ZM50.4 3.81283C49.5693 3.81283 48.7573 4.03645 48.0666 4.45541C47.3759 4.87437 46.8376 5.46985 46.5197 6.16656C46.2018 6.86326 46.1186 7.62989 46.2807 8.36951C46.4428 9.10913 46.8428 9.78851 47.4301 10.3217C48.0175 10.855 48.7659 11.2181 49.5806 11.3652C50.3953 11.5123 51.2398 11.4368 52.0073 11.1483C52.7747 10.8597 53.4307 10.371 53.8922 9.74396C54.3537 9.11694 54.6 8.37977 54.6 7.62566C54.5989 6.61475 54.156 5.64553 53.3686 4.9307C52.5812 4.21587 51.5136 3.81384 50.4 3.81283Z"/>
</mask>
<path d="M39.9 55.286H33.6C32.4864 55.285 31.4188 54.883 30.6314 54.1682C29.844 53.4533 29.4011 52.4841 29.4 51.4732V41.9411H33.6V51.4732H39.9V41.9411H44.1V34.3155C44.0994 33.81 43.878 33.3254 43.4843 32.968C43.0906 32.6106 42.5568 32.4096 42 32.4091H23.688L19.488 20.9706H6.3C5.74322 20.9711 5.2094 21.1721 4.81569 21.5295C4.42198 21.8869 4.20056 22.3715 4.2 22.877V34.3155H8.4V51.4732H16.8V38.1283H21V51.4732C20.9989 52.4841 20.556 53.4533 19.7686 54.1682C18.9812 54.883 17.9136 55.285 16.8 55.286H8.4C7.28643 55.285 6.21879 54.883 5.43138 54.1682C4.64397 53.4533 4.20111 52.4841 4.2 51.4732V38.1283C3.08643 38.1273 2.01879 37.7253 1.23138 37.0104C0.443968 36.2956 0.0011119 35.3264 0 34.3155V22.877C0.00166785 21.3606 0.665952 19.9068 1.84707 18.8345C3.02819 17.7623 4.62965 17.1593 6.3 17.1577H19.488C20.3694 17.1572 21.2286 17.4087 21.9436 17.8765C22.6587 18.3443 23.1933 19.0046 23.4717 19.7638L26.712 28.5962H42C43.6703 28.5977 45.2718 29.2008 46.4529 30.273C47.634 31.3453 48.2983 32.7991 48.3 34.3155V41.9411C48.2989 42.952 47.856 43.9213 47.0686 44.6361C46.2812 45.3509 45.2136 45.753 44.1 45.754V51.4732C44.0989 52.4841 43.656 53.4533 42.8686 54.1682C42.0812 54.883 41.0136 55.285 39.9 55.286ZM56.7 55.286H52.5V34.3155H58.8V22.877C58.7994 22.3715 58.578 21.8869 58.1843 21.5295C57.7906 21.1721 57.2568 20.9711 56.7 20.9706H48.3V17.1577H56.7C58.3703 17.1593 59.9718 17.7623 61.1529 18.8345C62.334 19.9068 62.9983 21.3606 63 22.877V34.3155C62.9989 35.3264 62.556 36.2956 61.7686 37.0104C60.9812 37.7253 59.9136 38.1273 58.8 38.1283H56.7V55.286ZM12.6 15.2513C10.9386 15.2513 9.31458 14.8041 7.93321 13.9662C6.55184 13.1282 5.47519 11.9373 4.83941 10.5439C4.20364 9.15047 4.03729 7.6172 4.3614 6.13797C4.68552 4.65874 5.48554 3.29998 6.6603 2.23351C7.83506 1.16704 9.3318 0.440766 10.9612 0.146528C12.5907 -0.147709 14.2796 0.00330405 15.8145 0.580472C17.3494 1.15764 18.6613 2.13504 19.5843 3.38907C20.5073 4.64311 21 6.11745 21 7.62566C20.9972 9.64734 20.1113 11.5855 18.5366 13.015C16.9619 14.4446 14.827 15.2488 12.6 15.2513ZM12.6 3.81283C11.7693 3.81283 10.9573 4.03645 10.2666 4.45541C9.57592 4.87437 9.03759 5.46985 8.71971 6.16656C8.40182 6.86326 8.31864 7.62989 8.4807 8.36951C8.64276 9.10913 9.04277 9.78851 9.63015 10.3217C10.2175 10.855 10.9659 11.2181 11.7806 11.3652C12.5953 11.5123 13.4398 11.4368 14.2073 11.1483C14.9747 10.8597 15.6307 10.371 16.0922 9.74396C16.5537 9.11694 16.8 8.37977 16.8 7.62566C16.7989 6.61475 16.356 5.64553 15.5686 4.9307C14.7812 4.21587 13.7136 3.81384 12.6 3.81283ZM50.4 15.2513C48.7386 15.2513 47.1146 14.8041 45.7332 13.9662C44.3518 13.1282 43.2752 11.9373 42.6394 10.5439C42.0036 9.15047 41.8373 7.6172 42.1614 6.13797C42.4855 4.65874 43.2855 3.29998 44.4603 2.23351C45.6351 1.16704 47.1318 0.440766 48.7612 0.146528C50.3907 -0.147709 52.0796 0.00330405 53.6145 0.580472C55.1494 1.15764 56.4613 2.13504 57.3843 3.38907C58.3073 4.64311 58.8 6.11745 58.8 7.62566C58.7972 9.64734 57.9113 11.5855 56.3366 13.015C54.7619 14.4446 52.627 15.2488 50.4 15.2513ZM50.4 3.81283C49.5693 3.81283 48.7573 4.03645 48.0666 4.45541C47.3759 4.87437 46.8376 5.46985 46.5197 6.16656C46.2018 6.86326 46.1186 7.62989 46.2807 8.36951C46.4428 9.10913 46.8428 9.78851 47.4301 10.3217C48.0175 10.855 48.7659 11.2181 49.5806 11.3652C50.3953 11.5123 51.2398 11.4368 52.0073 11.1483C52.7747 10.8597 53.4307 10.371 53.8922 9.74396C54.3537 9.11694 54.6 8.37977 54.6 7.62566C54.5989 6.61475 54.156 5.64553 53.3686 4.9307C52.5812 4.21587 51.5136 3.81384 50.4 3.81283Z" fill="white" stroke="white" stroke-width="17.4989" mask="url(#path-1-inside-1_145_574)"/>
</g>
<path id="Vector_2" d="M36.7504 26.6898C35.2967 26.6898 33.8757 26.2984 32.667 25.5652C31.4583 24.8321 30.5162 23.79 29.9599 22.5707C29.4036 21.3515 29.258 20.0099 29.5416 18.7156C29.8252 17.4212 30.5252 16.2323 31.5532 15.2992C32.5811 14.366 33.8907 13.7305 35.3165 13.4731C36.7422 13.2156 38.2201 13.3477 39.5631 13.8528C40.9062 14.3578 42.0541 15.213 42.8617 16.3103C43.6693 17.4076 44.1004 18.6976 44.1004 20.0173C44.0982 21.7863 43.3231 23.4823 41.9452 24.7332C40.5673 25.9841 38.6991 26.6877 36.7504 26.6898ZM36.7504 17.1577C36.1274 17.1577 35.5184 17.3254 35.0003 17.6396C34.4823 17.9538 34.0786 18.4004 33.8402 18.923C33.6018 19.4455 33.5394 20.0205 33.6609 20.5752C33.7825 21.1299 34.0825 21.6394 34.523 22.0394C34.9635 22.4393 35.5248 22.7116 36.1359 22.822C36.7469 22.9323 37.3803 22.8757 37.9558 22.6593C38.5314 22.4428 39.0234 22.0763 39.3695 21.606C39.7156 21.1358 39.9004 20.5829 39.9004 20.0173C39.8993 19.2592 39.5671 18.5324 38.9766 17.9964C38.3861 17.4603 37.5855 17.1587 36.7504 17.1577Z" fill="white"/>
</g>
</svg>
