<svg width="51" height="42" viewBox="0 0 51 42" fill="none" xmlns="http://www.w3.org/2000/svg">
<path id="Vector" d="M45.1223 30.7482V28.9514C45.1223 23.7096 43.0399 18.6824 39.3334 14.9759C35.6269 11.2694 30.5997 9.18704 25.3579 9.18704M25.3579 9.18704C20.1161 9.18704 15.0889 11.2694 11.3824 14.9759C7.67583 18.6824 5.59352 23.7096 5.59352 28.9514V30.7482M25.3579 9.18704V2M48.7158 30.7482H2L3.14993 34.5932C3.59181 36.0794 4.50244 37.3828 5.74592 38.3089C6.98939 39.2351 8.49902 39.7343 10.0495 39.732H40.6663C42.2168 39.7343 43.7264 39.2351 44.9699 38.3089C46.2133 37.3828 47.124 36.0794 47.5658 34.5932L48.7158 30.7482Z" stroke="white" stroke-width="3.28104" stroke-linecap="round" stroke-linejoin="round"/>
</svg>
