<svg width="41" height="41" viewBox="0 0 41 41" fill="none" xmlns="http://www.w3.org/2000/svg">
<path id="Vector" d="M1.90747 24.7242H8.10499C9.20078 24.7242 10.2517 25.1595 11.0265 25.9344C11.8014 26.7092 12.2367 27.7601 12.2367 28.8559V35.0535C12.2367 36.1492 11.8014 37.2002 11.0265 37.975C10.2517 38.7498 9.20078 39.1851 8.10499 39.1851H6.03915C4.94336 39.1851 3.89245 38.7498 3.11761 37.975C2.34277 37.2002 1.90747 36.1492 1.90747 35.0535V20.5926C1.90747 15.6615 3.86632 10.9324 7.35311 7.44564C10.8399 3.95885 15.569 2 20.5 2C25.4311 2 30.1602 3.95885 33.647 7.44564C37.1337 10.9324 39.0926 15.6615 39.0926 20.5926V35.0535C39.0926 36.1492 38.6573 37.2002 37.8825 37.975C37.1076 38.7498 36.0567 39.1851 34.9609 39.1851H32.8951C31.7993 39.1851 30.7484 38.7498 29.9735 37.975C29.1987 37.2002 28.7634 36.1492 28.7634 35.0535V28.8559C28.7634 27.7601 29.1987 26.7092 29.9735 25.9344C30.7484 25.1595 31.7993 24.7242 32.8951 24.7242H39.0926" stroke="white" stroke-width="3.28104" stroke-linecap="round" stroke-linejoin="round"/>
</svg>
