<svg width="48" height="40" viewBox="0 0 48 40" fill="none" xmlns="http://www.w3.org/2000/svg">
<g id="Sofa">
<g id="Group">
<path id="Vector" d="M2 29.8142V37.3999M6.37472 12.1143V7.05713C6.37472 5.71589 6.83563 4.42959 7.65605 3.4812C8.47647 2.5328 9.58919 2 10.7494 2H36.9978C38.158 2 39.2707 2.5328 40.0912 3.4812C40.9116 4.42959 41.3725 5.71589 41.3725 7.05713V12.1143" stroke="white" stroke-width="3.28104" stroke-linecap="round" stroke-linejoin="round"/>
<path id="Vector_2" d="M45.7472 29.8142V37.3999M41.3725 12.1143C40.2122 12.1143 39.0995 12.6471 38.2791 13.5955C37.4587 14.5439 36.9978 15.8302 36.9978 17.1714V22.2285H10.7494V17.1714C10.7494 15.8302 10.2885 14.5439 9.46812 13.5955C8.6477 12.6471 7.53497 12.1143 6.37472 12.1143C5.21447 12.1143 4.10175 12.6471 3.28133 13.5955C2.46091 14.5439 2 15.8302 2 17.1714V32.3428H45.7472V17.1714C45.7472 15.8302 45.2863 14.5439 44.4659 13.5955C43.6455 12.6471 42.5327 12.1143 41.3725 12.1143Z" stroke="white" stroke-width="3.28104" stroke-linecap="round" stroke-linejoin="round"/>
</g>
</g>
</svg>
