<svg width="55" height="44" viewBox="0 0 55 44" fill="none" xmlns="http://www.w3.org/2000/svg">
<path id="Vector" d="M30.2382 10.9335C38.9015 10.9335 43.8162 16.6671 44.5298 23.5928H44.7486C50.325 23.5928 54.8446 28.1015 54.8446 33.6615C54.8446 39.2229 50.325 43.7302 44.7486 43.7302H15.7264C10.1527 43.7302 5.63309 39.2229 5.63309 33.6615C5.63309 28.1015 10.1527 23.5928 15.7278 23.5928H15.9465C16.6656 16.622 21.5749 10.9335 30.2382 10.9335ZM30.2382 14.3444C24.413 14.3444 19.3355 19.0581 19.3355 25.5683C19.3355 26.6004 18.4374 27.4111 17.4107 27.4111H15.4694C11.9218 27.4111 9.04811 30.2998 9.04811 33.8638C9.04811 37.4292 11.9231 40.3193 15.4694 40.3193H45.007C48.5532 40.3193 51.4282 37.4292 51.4282 33.8652C51.4282 30.2998 48.5532 27.4097 45.007 27.4097H43.0657C42.0376 27.4097 41.1408 26.6004 41.1408 25.5696C41.1408 18.9747 36.0634 14.3444 30.2382 14.3444ZM6.601 22.2722C6.76174 22.6611 6.77258 23.0958 6.63143 23.4922C6.49027 23.8887 6.20715 24.2187 5.83679 24.4185L5.67957 24.4937L2.5202 25.8075C2.11677 25.9793 1.66257 25.9884 1.25255 25.8331C0.842519 25.6777 0.508407 25.3699 0.320054 24.974C0.1317 24.578 0.103684 24.1246 0.241864 23.7085C0.380043 23.2923 0.673721 22.9457 1.06151 22.7411L1.21872 22.6659L4.37809 21.3521C4.7947 21.1797 5.26276 21.1797 5.67935 21.3522C6.09593 21.5248 6.42832 21.8557 6.601 22.2722ZM24.3733 9.0906L24.2885 9.11795C23.0564 9.51733 21.8767 10.0635 20.7751 10.7448C19.3069 10.1235 17.6792 9.98504 16.1271 10.3493C14.575 10.7136 13.1789 11.5617 12.1403 12.7713C11.1017 13.9808 10.4745 15.4892 10.3492 17.0785C10.224 18.6679 10.6071 20.2559 11.4433 21.6132C10.4141 21.9808 9.43671 22.4798 8.53544 23.0979C7.27761 20.9437 6.80603 18.4199 7.20113 15.9569C7.59623 13.4939 8.83354 11.2442 10.702 9.59151C12.5705 7.93883 14.9545 6.98553 17.4473 6.89419C19.9402 6.80284 22.3889 7.57911 24.3733 9.0906ZM2.32334 9.33668L2.49696 9.39957L5.66727 10.7516C6.52854 11.1153 6.9414 12.1119 6.59006 12.9786C6.26196 13.7866 5.38291 14.1954 4.56675 13.9493L4.3945 13.8878L1.22282 12.5357C0.808512 12.3587 0.480024 12.0265 0.30778 11.6102C0.135535 11.1939 0.133245 10.7267 0.301399 10.3087C0.629503 9.50074 1.50718 9.09197 2.32334 9.33805V9.33668ZM12.3961 0.897572L12.4713 1.05479L13.7837 4.20732C13.9484 4.61143 13.9522 5.06321 13.7944 5.47005C13.6367 5.87689 13.3292 6.20795 12.9352 6.39537C12.5411 6.58279 12.0903 6.61235 11.6751 6.47801C11.2599 6.34367 10.9119 6.0556 10.7023 5.67285L10.6271 5.51564L9.31469 2.3631C9.15004 1.959 9.14621 1.50721 9.304 1.10038C9.46178 0.69354 9.76922 0.362475 10.1633 0.175059C10.5573 -0.0123581 11.0082 -0.0419274 11.4233 0.0924141C11.8385 0.226756 12.1866 0.514829 12.3961 0.897572ZM24.767 0.131997C25.5887 0.472405 26.0084 1.37606 25.765 2.20999L25.7021 2.38771L24.346 5.49923C24.1742 5.90354 23.8549 6.22724 23.4529 6.40453C23.051 6.58182 22.5967 6.59938 22.1823 6.45364C21.7679 6.3079 21.4245 6.00981 21.222 5.61996C21.0196 5.23012 20.9732 4.7778 21.0923 4.35497L21.1551 4.17725L22.5086 1.06573C22.5956 0.856119 22.723 0.665698 22.8835 0.505335C23.0441 0.344971 23.2347 0.217805 23.4444 0.1311C23.6541 0.044394 23.8789 -0.000153391 24.1058 3.96826e-07C24.3327 0.000154184 24.5574 0.0450068 24.767 0.131997Z" fill="white"/>
</svg>
