<svg width="58" height="58" viewBox="0 0 58 58" fill="none" xmlns="http://www.w3.org/2000/svg">
<g id="mood=cool, state=icon selected" clip-path="url(#clip0_84_1597)" filter="url(#filter0_i_84_1597)">
<g id="Group">
<path id="Vector" d="M17.7023 34.7413C17.5862 34.5371 17.4308 34.3578 17.2451 34.2138C17.0594 34.0699 16.8471 33.9641 16.6204 33.9025C16.3936 33.841 16.1569 33.8249 15.9239 33.8551C15.6909 33.8854 15.4662 33.9615 15.2627 34.079C15.0593 34.1965 14.881 34.353 14.7383 34.5397C14.5956 34.7263 14.4912 34.9393 14.4311 35.1665C14.3711 35.3937 14.3566 35.6304 14.3884 35.8632C14.4202 36.096 14.4978 36.3202 14.6166 36.5229C16.0236 38.9614 18.0482 40.9863 20.4864 42.3937C22.9247 43.8011 25.6907 44.5414 28.506 44.5402C31.3212 44.5407 34.0869 43.8001 36.5251 42.3927C38.9632 40.9854 40.9879 38.9609 42.3955 36.5229C42.5143 36.3202 42.5918 36.096 42.6237 35.8632C42.6555 35.6304 42.641 35.3937 42.5809 35.1665C42.5209 34.9393 42.4165 34.7263 42.2737 34.5397C42.131 34.353 41.9528 34.1965 41.7493 34.079C41.5458 33.9615 41.3211 33.8854 41.0881 33.8551C40.8551 33.8249 40.6184 33.841 40.3917 33.9025C40.1649 33.9641 39.9526 34.0699 39.7669 34.2138C39.5812 34.3578 39.4258 34.5371 39.3097 34.7413C38.2154 36.6381 36.6407 38.2132 34.7441 39.3079C32.8474 40.4026 30.6959 40.9782 28.506 40.9769C26.3162 40.9782 24.1646 40.4026 22.268 39.3079C20.3714 38.2132 18.7967 36.6381 17.7023 34.7413ZM24.9428 18.2294V17.816C24.9428 16.871 24.5674 15.9647 23.8992 15.2965C23.2309 14.6282 22.3246 14.2528 21.3796 14.2528H11.6876C11.146 14.2528 10.6115 14.3763 10.1248 14.6139C9.63802 14.8515 9.21185 15.1969 8.87863 15.6239C8.54541 16.0509 8.31392 16.5482 8.20176 17.0781C8.08959 17.608 8.0997 18.1565 8.23131 18.6819L9.33948 23.1074C9.72485 24.6491 10.6145 26.0178 11.867 26.9959C13.1195 27.974 14.663 28.5054 16.2521 28.5057H17.8164C19.6074 28.5061 21.333 27.8321 22.6495 26.6179C23.9661 25.4036 24.7773 23.7382 24.9214 21.9529C26.0747 21.558 27.2871 21.364 28.506 21.3792C29.9064 21.3792 31.1428 21.6073 32.0906 21.9529C32.2348 23.7382 33.0459 25.4036 34.3625 26.6179C35.6791 27.8321 37.4046 28.5061 39.1957 28.5057H40.7564C42.3455 28.5054 43.889 27.974 45.1415 26.9959C46.394 26.0178 47.2836 24.6491 47.669 23.1074L48.7772 18.6819C48.9087 18.1568 48.9189 17.6086 48.8069 17.079C48.695 16.5494 48.4638 16.0522 48.131 15.6253C47.7981 15.1984 47.3724 14.8529 46.8861 14.6151C46.3998 14.3772 45.8657 14.2534 45.3244 14.2528H35.6325C34.6874 14.2528 33.7811 14.6282 33.1129 15.2965C32.4447 15.9647 32.0692 16.871 32.0692 17.816V18.2294C30.9023 17.9499 29.706 17.8111 28.506 17.816C27.2589 17.816 26.0474 17.9586 24.9428 18.2294Z" fill="#857EB9"/>
<path id="Vector_2" d="M57.0115 28.5057C57.0115 36.0659 54.0082 43.3165 48.6624 48.6624C43.3165 54.0082 36.0659 57.0115 28.5057 57.0115C20.9456 57.0115 13.695 54.0082 8.34914 48.6624C3.00328 43.3165 0 36.0659 0 28.5057C0 20.9456 3.00328 13.695 8.34914 8.34914C13.695 3.00328 20.9456 0 28.5057 0C36.0659 0 43.3165 3.00328 48.6624 8.34914C54.0082 13.695 57.0115 20.9456 57.0115 28.5057ZM53.4483 28.5057C53.4483 21.8906 50.8204 15.5463 46.1428 10.8687C41.4651 6.19108 35.1209 3.56322 28.5057 3.56322C21.8906 3.56322 15.5463 6.19108 10.8687 10.8687C6.19108 15.5463 3.56322 21.8906 3.56322 28.5057C3.56322 35.1209 6.19108 41.4651 10.8687 46.1428C15.5463 50.8204 21.8906 53.4483 28.5057 53.4483C35.1209 53.4483 41.4651 50.8204 46.1428 46.1428C50.8204 41.4651 53.4483 35.1209 53.4483 28.5057Z" fill="#857EB9"/>
</g>
</g>
<defs>
<filter id="filter0_i_84_1597" x="0" y="0" width="57.0115" height="61.0115" filterUnits="userSpaceOnUse" color-interpolation-filters="sRGB">
<feFlood flood-opacity="0" result="BackgroundImageFix"/>
<feBlend mode="normal" in="SourceGraphic" in2="BackgroundImageFix" result="shape"/>
<feColorMatrix in="SourceAlpha" type="matrix" values="0 0 0 0 0 0 0 0 0 0 0 0 0 0 0 0 0 0 127 0" result="hardAlpha"/>
<feOffset dy="4"/>
<feGaussianBlur stdDeviation="2"/>
<feComposite in2="hardAlpha" operator="arithmetic" k2="-1" k3="1"/>
<feColorMatrix type="matrix" values="0 0 0 0 0 0 0 0 0 0 0 0 0 0 0 0 0 0 0.25 0"/>
<feBlend mode="normal" in2="shape" result="effect1_innerShadow_84_1597"/>
</filter>
<clipPath id="clip0_84_1597">
<rect width="57.0115" height="57.0115" fill="white"/>
</clipPath>
</defs>
</svg>
