<svg width="55" height="55" viewBox="0 0 55 55" fill="none" xmlns="http://www.w3.org/2000/svg">
<g id="mood=dead, state=icon selected" clip-path="url(#clip0_84_1595)" filter="url(#filter0_i_84_1595)">
<g id="Group">
<path id="Vector" d="M27.0805 50.7759C20.796 50.7759 14.769 48.2794 10.3253 43.8356C5.88153 39.3919 3.38506 33.3649 3.38506 27.0805C3.38506 20.796 5.88153 14.769 10.3253 10.3253C14.769 5.88153 20.796 3.38506 27.0805 3.38506C33.3649 3.38506 39.3919 5.88153 43.8356 10.3253C48.2794 14.769 50.7759 20.796 50.7759 27.0805C50.7759 33.3649 48.2794 39.3919 43.8356 43.8356C39.3919 48.2794 33.3649 50.7759 27.0805 50.7759ZM27.0805 54.1609C34.2626 54.1609 41.1507 51.3078 46.2292 46.2292C51.3078 41.1507 54.1609 34.2626 54.1609 27.0805C54.1609 19.8983 51.3078 13.0103 46.2292 7.93168C41.1507 2.85311 34.2626 0 27.0805 0C19.8983 0 13.0103 2.85311 7.93168 7.93168C2.85311 13.0103 0 19.8983 0 27.0805C0 34.2626 2.85311 41.1507 7.93168 46.2292C13.0103 51.3078 19.8983 54.1609 27.0805 54.1609Z" fill="#857EB9"/>
<path id="Vector_2" d="M30.9601 17.4195C31.1173 17.2619 31.3041 17.1368 31.5097 17.0515C31.7154 16.9662 31.9358 16.9222 32.1584 16.9222C32.3811 16.9222 32.6015 16.9662 32.8071 17.0515C33.0128 17.1368 33.1995 17.2619 33.3567 17.4195L35.5435 19.6096L37.7302 17.4195C38.0481 17.1017 38.4791 16.9231 38.9286 16.9231C39.378 16.9231 39.8091 17.1017 40.1269 17.4195C40.4447 17.7373 40.6232 18.1683 40.6232 18.6178C40.6232 19.0672 40.4447 19.4983 40.1269 19.8161L37.9367 22.0029L40.1269 24.1896C40.4447 24.5074 40.6232 24.9385 40.6232 25.3879C40.6232 25.8374 40.4447 26.2684 40.1269 26.5862C39.8091 26.904 39.378 27.0826 38.9286 27.0826C38.4791 27.0826 38.0481 26.904 37.7302 26.5862L35.5435 24.3961L33.3567 26.5862C33.1994 26.7436 33.0126 26.8684 32.807 26.9536C32.6014 27.0387 32.381 27.0826 32.1584 27.0826C31.9359 27.0826 31.7155 27.0387 31.5099 26.9536C31.3043 26.8684 31.1175 26.7436 30.9601 26.5862C30.8028 26.4289 30.6779 26.242 30.5928 26.0364C30.5076 25.8308 30.4638 25.6105 30.4638 25.3879C30.4638 25.1654 30.5076 24.945 30.5928 24.7394C30.6779 24.5338 30.8028 24.347 30.9601 24.1896L33.1503 22.0029L30.9601 19.8161C30.8025 19.6589 30.6775 19.4721 30.5921 19.2665C30.5068 19.0609 30.4629 18.8404 30.4629 18.6178C30.4629 18.3952 30.5068 18.1747 30.5921 17.9691C30.6775 17.7635 30.8025 17.5767 30.9601 17.4195ZM14.0348 17.4195C14.1921 17.2619 14.3788 17.1368 14.5845 17.0515C14.7901 16.9662 15.0105 16.9222 15.2332 16.9222C15.4558 16.9222 15.6762 16.9662 15.8818 17.0515C16.0875 17.1368 16.2742 17.2619 16.4315 17.4195L18.6182 19.6096L20.805 17.4195C20.9623 17.2621 21.1491 17.1373 21.3547 17.0521C21.5604 16.967 21.7807 16.9231 22.0033 16.9231C22.2258 16.9231 22.4462 16.967 22.6518 17.0521C22.8574 17.1373 23.0442 17.2621 23.2016 17.4195C23.3589 17.5768 23.4838 17.7637 23.5689 17.9693C23.6541 18.1749 23.6979 18.3952 23.6979 18.6178C23.6979 18.8403 23.6541 19.0607 23.5689 19.2663C23.4838 19.4719 23.3589 19.6587 23.2016 19.8161L21.0114 22.0029L23.2016 24.1896C23.3589 24.347 23.4838 24.5338 23.5689 24.7394C23.6541 24.945 23.6979 25.1654 23.6979 25.3879C23.6979 25.6105 23.6541 25.8308 23.5689 26.0364C23.4838 26.242 23.3589 26.4289 23.2016 26.5862C23.0442 26.7436 22.8574 26.8684 22.6518 26.9536C22.4462 27.0387 22.2258 27.0826 22.0033 27.0826C21.7807 27.0826 21.5604 27.0387 21.3547 26.9536C21.1491 26.8684 20.9623 26.7436 20.805 26.5862L18.6182 24.3961L16.4315 26.5862C16.2741 26.7436 16.0873 26.8684 15.8817 26.9536C15.6761 27.0387 15.4557 27.0826 15.2332 27.0826C15.0106 27.0826 14.7902 27.0387 14.5846 26.9536C14.379 26.8684 14.1922 26.7436 14.0348 26.5862C13.8775 26.4289 13.7526 26.242 13.6675 26.0364C13.5823 25.8308 13.5385 25.6105 13.5385 25.3879C13.5385 25.1654 13.5823 24.945 13.6675 24.7394C13.7526 24.5338 13.8775 24.347 14.0348 24.1896L16.225 22.0029L14.0348 19.8161C13.8772 19.6589 13.7522 19.4721 13.6668 19.2665C13.5815 19.0609 13.5376 18.8404 13.5376 18.6178C13.5376 18.3952 13.5815 18.1747 13.6668 17.9691C13.7522 17.7635 13.8772 17.5767 14.0348 17.4195ZM33.851 37.2356C33.851 39.0312 33.1377 40.7532 31.868 42.0228C30.5984 43.2924 28.8764 44.0057 27.0809 44.0057C25.2853 44.0057 23.5633 43.2924 22.2937 42.0228C21.024 40.7532 20.3107 39.0312 20.3107 37.2356C20.3107 35.4401 21.024 33.7181 22.2937 32.4484C23.5633 31.1788 25.2853 30.4655 27.0809 30.4655C28.8764 30.4655 30.5984 31.1788 31.868 32.4484C33.1377 33.7181 33.851 35.4401 33.851 37.2356Z" fill="#857EB9"/>
</g>
</g>
<defs>
<filter id="filter0_i_84_1595" x="0" y="0" width="54.1609" height="58.1609" filterUnits="userSpaceOnUse" color-interpolation-filters="sRGB">
<feFlood flood-opacity="0" result="BackgroundImageFix"/>
<feBlend mode="normal" in="SourceGraphic" in2="BackgroundImageFix" result="shape"/>
<feColorMatrix in="SourceAlpha" type="matrix" values="0 0 0 0 0 0 0 0 0 0 0 0 0 0 0 0 0 0 127 0" result="hardAlpha"/>
<feOffset dy="4"/>
<feGaussianBlur stdDeviation="2"/>
<feComposite in2="hardAlpha" operator="arithmetic" k2="-1" k3="1"/>
<feColorMatrix type="matrix" values="0 0 0 0 0 0 0 0 0 0 0 0 0 0 0 0 0 0 0.25 0"/>
<feBlend mode="normal" in2="shape" result="effect1_innerShadow_84_1595"/>
</filter>
<clipPath id="clip0_84_1595">
<rect width="54.1609" height="54.1609" fill="white"/>
</clipPath>
</defs>
</svg>
