<svg width="72" height="72" viewBox="0 0 72 72" fill="none" xmlns="http://www.w3.org/2000/svg">
<g id="mood=hapy, state=icon selected" filter="url(#filter0_i_84_1612)">
<g id="Group">
<path id="Vector" d="M35.6319 8.90808C50.3913 8.90808 62.356 20.8729 62.356 35.6322C62.356 50.3917 50.3913 62.3564 35.6319 62.3564C20.8725 62.3564 8.90771 50.3917 8.90771 35.6322C8.90771 20.8729 20.8725 8.90808 35.6319 8.90808Z" stroke="#857EB9" stroke-width="4.33287" stroke-linecap="round"/>
<path id="Vector_2" d="M23.7549 41.5709C25.2396 46.0249 29.0726 50.479 35.6323 50.479C42.1919 50.479 46.025 46.0249 47.5097 41.5709" stroke="#857EB9" stroke-width="4.33287" stroke-linecap="round"/>
</g>
<g id="Group_2">
<path id="Vector_3" d="M26.7242 32.6629C28.3642 32.6629 29.6936 30.6688 29.6936 28.2089C29.6936 25.749 28.3642 23.7549 26.7242 23.7549C25.0843 23.7549 23.7549 25.749 23.7549 28.2089C23.7549 30.6688 25.0843 32.6629 26.7242 32.6629Z" fill="#857EB9"/>
<path id="Vector_4" d="M44.5399 32.663C46.1798 32.663 47.5093 30.6689 47.5093 28.209C47.5093 25.7491 46.1798 23.755 44.5399 23.755C42.9 23.755 41.5706 25.7491 41.5706 28.209C41.5706 30.6689 42.9 32.663 44.5399 32.663Z" fill="#857EB9"/>
</g>
</g>
<defs>
<filter id="filter0_i_84_1612" x="0" y="0" width="71.2644" height="75.2644" filterUnits="userSpaceOnUse" color-interpolation-filters="sRGB">
<feFlood flood-opacity="0" result="BackgroundImageFix"/>
<feBlend mode="normal" in="SourceGraphic" in2="BackgroundImageFix" result="shape"/>
<feColorMatrix in="SourceAlpha" type="matrix" values="0 0 0 0 0 0 0 0 0 0 0 0 0 0 0 0 0 0 127 0" result="hardAlpha"/>
<feOffset dy="4"/>
<feGaussianBlur stdDeviation="2"/>
<feComposite in2="hardAlpha" operator="arithmetic" k2="-1" k3="1"/>
<feColorMatrix type="matrix" values="0 0 0 0 0 0 0 0 0 0 0 0 0 0 0 0 0 0 0.25 0"/>
<feBlend mode="normal" in2="shape" result="effect1_innerShadow_84_1612"/>
</filter>
</defs>
</svg>
