<svg width="58" height="58" viewBox="0 0 58 58" fill="none" xmlns="http://www.w3.org/2000/svg">
<g id="mood=sad, state=icon selected" clip-path="url(#clip0_84_1604)" filter="url(#filter0_i_84_1604)">
<path id="Vector" d="M28.5057 35.6322C29.842 35.6322 31.2246 35.7806 32.6536 36.0776C34.0826 36.3745 35.4466 36.8199 36.7457 37.4138C38.0448 38.0077 39.2325 38.7778 40.3089 39.7243C41.3853 40.6708 42.239 41.7657 42.87 43.0092L39.6686 44.5959C39.1861 43.6494 38.518 42.8421 37.6643 42.174C36.8106 41.5059 35.8734 40.9399 34.8527 40.4759C33.832 40.012 32.7556 39.6872 31.6236 39.5016C30.4915 39.316 29.4522 39.214 28.5057 39.1954C27.5036 39.1954 26.455 39.2882 25.3601 39.4738C24.2651 39.6594 23.198 39.9749 22.1588 40.4203C21.1195 40.8657 20.1823 41.4317 19.3472 42.1184C18.512 42.805 17.8439 43.6309 17.3428 44.5959L14.1415 43.0092C14.7725 41.7286 15.6169 40.6244 16.6747 39.6965C17.7326 38.7686 18.9203 37.9984 20.238 37.386C21.5556 36.7735 22.9197 36.3374 24.3301 36.0776C25.7405 35.8178 27.1324 35.6693 28.5057 35.6322ZM28.5057 0C31.1225 0 33.6464 0.334052 36.0776 1.00216C38.5087 1.67026 40.7729 2.6353 42.87 3.89727C44.9671 5.15924 46.8879 6.64392 48.6324 8.35129C50.3769 10.0587 51.8708 11.9795 53.1142 14.1137C54.3576 16.2479 55.3134 18.5213 55.9815 20.9339C56.6496 23.3465 56.9929 25.8704 57.0115 28.5057C57.0115 31.1225 56.6774 33.6464 56.0093 36.0776C55.3412 38.5087 54.3855 40.7821 53.1421 42.8978C51.8986 45.0135 50.414 46.9343 48.688 48.6602C46.9621 50.3861 45.032 51.8708 42.8978 53.1142C40.7636 54.3576 38.4902 55.3134 36.0776 55.9815C33.665 56.6496 31.141 56.9929 28.5057 57.0115C25.889 57.0115 23.3651 56.6774 20.9339 56.0093C18.5028 55.3412 16.2293 54.3855 14.1137 53.1421C11.998 51.8986 10.0772 50.414 8.35129 48.688C6.62536 46.9621 5.14068 45.032 3.89727 42.8978C2.65386 40.7636 1.6981 38.4995 1.02999 36.1054C0.361889 33.7114 0.0185584 31.1782 0 28.5057C0 25.889 0.334052 23.3651 1.00216 20.9339C1.67026 18.5028 2.62602 16.2293 3.86943 14.1137C5.11285 11.998 6.59752 10.0772 8.32345 8.35129C10.0494 6.62536 11.9795 5.14068 14.1137 3.89727C16.2479 2.65386 18.512 1.6981 20.9061 1.02999C23.3001 0.361889 25.8333 0.0185584 28.5057 0ZM28.5057 53.4483C30.7884 53.4483 32.9876 53.1513 35.1033 52.5575C37.2189 51.9636 39.2047 51.1285 41.0605 50.0521C42.9164 48.9757 44.6052 47.6673 46.127 46.127C47.6488 44.5866 48.9479 42.9071 50.0242 41.0884C51.1006 39.2696 51.945 37.2839 52.5575 35.1311C53.1699 32.9783 53.4668 30.7699 53.4483 28.5057C53.4483 26.2231 53.1513 24.0239 52.5575 21.9082C51.9636 19.7926 51.1285 17.8068 50.0521 15.951C48.9757 14.0951 47.6673 12.4063 46.127 10.8845C44.5866 9.36273 42.9071 8.06364 41.0884 6.98725C39.2696 5.91086 37.2839 5.06645 35.1311 4.45402C32.9783 3.84159 30.7699 3.54466 28.5057 3.56322C26.2231 3.56322 24.0239 3.86015 21.9082 4.45402C19.7926 5.04789 17.8068 5.88302 15.951 6.95941C14.0951 8.0358 12.4063 9.34417 10.8845 10.8845C9.36273 12.4249 8.06364 14.1044 6.98725 15.9231C5.91086 17.7419 5.06645 19.7276 4.45402 21.8804C3.84159 24.0332 3.54466 26.2416 3.56322 28.5057C3.56322 30.7884 3.86015 32.9876 4.45402 35.1033C5.04789 37.2189 5.88302 39.2047 6.95941 41.0605C8.0358 42.9164 9.34417 44.6052 10.8845 46.127C12.4249 47.6488 14.1044 48.9479 15.9231 50.0242C17.7419 51.1006 19.7276 51.945 21.8804 52.5575C24.0332 53.1699 26.2416 53.4668 28.5057 53.4483ZM21.3515 25.5271C20.4792 25.1374 19.5791 24.9425 18.6512 24.9425C18.0017 24.9425 17.3707 25.0353 16.7583 25.2209C16.1458 25.4065 15.5705 25.6663 15.0323 26.0004C14.4941 26.3344 14.0209 26.752 13.6126 27.253C13.2043 27.7541 12.8517 28.2923 12.5548 28.8676L9.29777 27.3922C9.70606 26.4829 10.235 25.657 10.8845 24.9147C11.5341 24.1724 12.2671 23.5414 13.0837 23.0217C13.9003 22.5021 14.7725 22.1031 15.7004 21.8247C16.6284 21.5463 17.6027 21.3979 18.6234 21.3793C20.1081 21.3793 21.5092 21.6855 22.8269 22.298L21.3515 25.5271ZM34.1846 22.298C34.8342 21.9825 35.5116 21.7505 36.2168 21.602C36.922 21.4535 37.6458 21.3793 38.3881 21.3793C39.3903 21.3793 40.3553 21.5185 41.2832 21.7969C42.2111 22.0752 43.0927 22.4835 43.9278 23.0217C44.7629 23.5599 45.4867 24.1909 46.0991 24.9147C46.7116 25.6385 47.2498 26.4643 47.7137 27.3922L44.4567 28.8676C44.1783 28.2738 43.835 27.7356 43.4267 27.253C43.0184 26.7705 42.5452 26.3622 42.007 26.0282C41.4688 25.6941 40.8935 25.425 40.2811 25.2209C39.6686 25.0168 39.0284 24.924 38.3603 24.9425C37.3952 24.9425 36.4859 25.1374 35.6322 25.5271L34.1846 22.298Z" fill="#857EB9"/>
</g>
<defs>
<filter id="filter0_i_84_1604" x="0" y="0" width="57.0115" height="61.0115" filterUnits="userSpaceOnUse" color-interpolation-filters="sRGB">
<feFlood flood-opacity="0" result="BackgroundImageFix"/>
<feBlend mode="normal" in="SourceGraphic" in2="BackgroundImageFix" result="shape"/>
<feColorMatrix in="SourceAlpha" type="matrix" values="0 0 0 0 0 0 0 0 0 0 0 0 0 0 0 0 0 0 127 0" result="hardAlpha"/>
<feOffset dy="4"/>
<feGaussianBlur stdDeviation="2"/>
<feComposite in2="hardAlpha" operator="arithmetic" k2="-1" k3="1"/>
<feColorMatrix type="matrix" values="0 0 0 0 0 0 0 0 0 0 0 0 0 0 0 0 0 0 0.25 0"/>
<feBlend mode="normal" in2="shape" result="effect1_innerShadow_84_1604"/>
</filter>
<clipPath id="clip0_84_1604">
<rect width="57.0115" height="57.0115" fill="white"/>
</clipPath>
</defs>
</svg>
