<svg width="69" height="69" viewBox="0 0 69 69" fill="none" xmlns="http://www.w3.org/2000/svg">
<g id="mood=shine, state=icon selected" clip-path="url(#clip0_84_1599)" filter="url(#filter0_i_84_1599)">
<path id="Vector" d="M45.8597 18.2779C44.8771 17.0107 43.5409 16.0633 42.0199 15.5556L38.0918 14.2785C37.7903 14.1712 37.5293 13.9731 37.3448 13.7115C37.1602 13.45 37.0612 13.1377 37.0612 12.8176C37.0612 12.4975 37.1602 12.1852 37.3448 11.9236C37.5293 11.6621 37.7903 11.464 38.0918 11.3567L40.1158 10.6982L40.1072 10.6953L42.0171 10.0739C43.1811 9.67668 44.2387 9.0179 45.1084 8.14818C45.9781 7.27846 46.6369 6.22096 47.0341 5.0569L47.0655 4.95998L48.3425 1.03474C48.4487 0.731193 48.6466 0.468159 48.9088 0.282052C49.1711 0.0959453 49.4847 -0.00402832 49.8063 -0.00402832C50.1279 -0.00402832 50.4415 0.0959453 50.7037 0.282052C50.966 0.468159 51.1639 0.731193 51.2701 1.03474L52.5443 4.95998C52.9416 6.1536 53.6121 7.23798 54.5024 8.12679C55.3927 9.0156 56.4782 9.68428 57.6724 10.0796L61.5977 11.3567L61.6775 11.3766C61.9791 11.484 62.24 11.682 62.4246 11.9436C62.6091 12.2052 62.7082 12.5174 62.7082 12.8375C62.7082 13.1577 62.6091 13.4699 62.4246 13.7315C62.24 13.9931 61.9791 14.1911 61.6775 14.2985L57.7494 15.5755C57.2531 15.7397 56.7739 15.9517 56.3184 16.2083L56.3298 16.2226C55.0583 16.9389 54.0044 17.986 53.2797 19.2528L53.2712 19.2442C53.0081 19.7063 52.7914 20.1933 52.6241 20.698L51.347 24.6204C51.2403 24.923 51.0423 25.1849 50.7804 25.3703C50.5185 25.5556 50.2055 25.6551 49.8847 25.6551C49.5638 25.6551 49.2509 25.5556 48.989 25.3703C48.7271 25.1849 48.5291 24.923 48.4223 24.6204L47.1453 20.6952C46.8581 19.8224 46.4243 19.0049 45.8625 18.2779H45.8597ZM67.7948 29.1129L65.6113 28.406C64.9484 28.185 64.3461 27.8126 63.8523 27.3183C63.3585 26.824 62.9867 26.2213 62.7664 25.5582L62.0538 23.3804C61.9948 23.212 61.8849 23.0661 61.7393 22.9629C61.5938 22.8597 61.4198 22.8043 61.2414 22.8043C61.0629 22.8043 60.8889 22.8597 60.7434 22.9629C60.5978 23.0661 60.488 23.212 60.429 23.3804L59.722 25.5582C59.3731 26.6211 58.6403 27.5156 57.6667 28.0667H57.6553V28.0724C57.4197 28.2054 57.1726 28.317 56.917 28.406L54.7364 29.1129C54.568 29.1719 54.4221 29.2818 54.3189 29.4273C54.2157 29.5729 54.1602 29.7469 54.1602 29.9253C54.1602 30.1037 54.2157 30.2777 54.3189 30.4233C54.4221 30.5688 54.568 30.6787 54.7364 30.7377L56.917 31.4475C57.5798 31.6686 58.182 32.0411 58.6758 32.5354C59.1696 33.0297 59.5415 33.6322 59.7619 34.2952L60.4717 36.4759C60.5296 36.6474 60.6404 36.7961 60.7881 36.9007C60.897 36.9779 61.0224 37.0288 61.1544 37.0493C61.2863 37.0698 61.4212 37.0593 61.5484 37.0186C61.6756 36.978 61.7916 36.9083 61.8872 36.8151C61.9829 36.7219 62.0555 36.6077 62.0994 36.4816L62.8092 34.3038C63.0295 33.6403 63.4017 33.0373 63.8961 32.543C64.3904 32.0486 64.9934 31.6764 65.6569 31.4561L67.8376 30.7491C68.006 30.6901 68.1519 30.5802 68.2551 30.4347C68.3583 30.2891 68.4137 30.1151 68.4137 29.9367C68.4137 29.7583 68.3583 29.5843 68.2551 29.4387C68.1519 29.2932 68.006 29.1833 67.8376 29.1243L67.7948 29.1129ZM59.1405 39.2296C58.7316 38.9386 58.3855 38.5683 58.1228 38.1407C57.3642 42.7465 55.2915 47.0352 52.1539 50.4912C49.0162 53.9473 44.9472 56.4235 40.4359 57.6224C35.9246 58.8212 31.1631 58.6916 26.7237 57.2491C22.2843 55.8066 18.356 53.1126 15.411 49.491C12.466 45.8694 10.6297 41.4743 10.1228 36.834C9.61592 32.1937 10.46 27.5058 12.5536 23.3338C14.6472 19.1617 17.9012 15.6832 21.9245 13.3162C25.9477 10.9493 30.569 9.79467 35.2327 9.99124C35.7559 9.36936 36.4404 8.9038 37.211 8.64577L41.0878 7.38582C41.4869 7.24899 41.866 7.0637 42.2195 6.83851C39.6164 6.07898 36.9182 5.69503 34.2065 5.69828C18.4599 5.69543 5.69507 18.4603 5.69507 34.204C5.69507 49.9506 18.4599 62.7155 34.2065 62.7155C48.0318 62.7155 59.5624 52.8724 62.165 39.8083C61.6488 39.9342 61.1116 39.9478 60.5898 39.8479C60.0679 39.7481 59.5737 39.5372 59.1405 39.2296ZM34.2065 47.0402C32.2631 47.0424 30.3447 46.6021 28.5967 45.7526C26.8488 44.9031 25.3173 43.6667 24.1183 42.1372C23.7668 41.6919 23.2527 41.4045 22.6893 41.3382C22.1258 41.2719 21.5591 41.4322 21.1138 41.7837C20.6685 42.1352 20.3811 42.6493 20.3148 43.2127C20.2485 43.7762 20.4088 44.3429 20.7604 44.7882C22.3603 46.824 24.4023 48.4693 26.7317 49.5997C29.0612 50.7301 31.6172 51.316 34.2065 51.3132C39.5086 51.3132 44.4116 48.8788 47.6384 44.7996C47.8125 44.5791 47.9414 44.3265 48.0179 44.0562C48.0943 43.7859 48.1168 43.5031 48.0839 43.2241C48.0511 42.9452 47.9637 42.6754 47.8266 42.4302C47.6895 42.185 47.5054 41.9692 47.2849 41.7951C47.0645 41.621 46.8118 41.4921 46.5415 41.4157C46.2712 41.3392 45.9885 41.3168 45.7095 41.3496C45.4305 41.3824 45.1607 41.4699 44.9155 41.607C44.6703 41.744 44.4545 41.9281 44.2804 42.1486C43.0814 43.6734 41.5515 44.9059 39.8063 45.7528C38.0611 46.5997 36.1463 47.0389 34.2065 47.0373V47.0402ZM29.218 28.5057C29.218 27.5607 28.8426 26.6544 28.1744 25.9861C27.5061 25.3179 26.5998 24.9425 25.6548 24.9425C24.7098 24.9425 23.8034 25.3179 23.1352 25.9861C22.467 26.6544 22.0916 27.5607 22.0916 28.5057C22.0916 29.4507 22.467 30.3571 23.1352 31.0253C23.8034 31.6935 24.7098 32.0689 25.6548 32.0689C26.5998 32.0689 27.5061 31.6935 28.1744 31.0253C28.8426 30.3571 29.218 29.4507 29.218 28.5057ZM46.3215 28.5057C46.3215 27.5607 45.946 26.6544 45.2778 25.9861C44.6096 25.3179 43.7033 24.9425 42.7582 24.9425C41.8132 24.9425 40.9069 25.3179 40.2387 25.9861C39.5704 26.6544 39.195 27.5607 39.195 28.5057C39.195 29.4507 39.5704 30.3571 40.2387 31.0253C40.9069 31.6935 41.8132 32.0689 42.7582 32.0689C43.7033 32.0689 44.6096 31.6935 45.2778 31.0253C45.946 30.3571 46.3215 29.4507 46.3215 28.5057Z" fill="#857EB9"/>
</g>
<defs>
<filter id="filter0_i_84_1599" x="0" y="0" width="68.4138" height="72.4138" filterUnits="userSpaceOnUse" color-interpolation-filters="sRGB">
<feFlood flood-opacity="0" result="BackgroundImageFix"/>
<feBlend mode="normal" in="SourceGraphic" in2="BackgroundImageFix" result="shape"/>
<feColorMatrix in="SourceAlpha" type="matrix" values="0 0 0 0 0 0 0 0 0 0 0 0 0 0 0 0 0 0 127 0" result="hardAlpha"/>
<feOffset dy="4"/>
<feGaussianBlur stdDeviation="2"/>
<feComposite in2="hardAlpha" operator="arithmetic" k2="-1" k3="1"/>
<feColorMatrix type="matrix" values="0 0 0 0 0 0 0 0 0 0 0 0 0 0 0 0 0 0 0.25 0"/>
<feBlend mode="normal" in2="shape" result="effect1_innerShadow_84_1599"/>
</filter>
<clipPath id="clip0_84_1599">
<rect width="68.4138" height="68.4138" fill="white"/>
</clipPath>
</defs>
</svg>
