<svg width="69" height="69" viewBox="0 0 69 69" fill="none" xmlns="http://www.w3.org/2000/svg">
<g id="mood=smile, state=icon selected" filter="url(#filter0_i_84_1590)">
<path id="Vector" d="M19.2414 34.2069C18.944 34.2065 18.6499 34.2681 18.3777 34.3878C18.1055 34.5075 17.8612 34.6827 17.6606 34.9021C17.4599 35.1216 17.3072 35.3805 17.2123 35.6623C17.1173 35.944 17.0822 36.2425 17.1092 36.5387C17.9073 45.3014 24.3781 52.7356 34.2069 52.7356C44.0357 52.7356 50.5037 45.3014 51.3047 36.5387C51.3316 36.2425 51.2965 35.944 51.2016 35.6623C51.1066 35.3805 50.954 35.1216 50.7533 34.9021C50.5526 34.6827 50.3084 34.5075 50.0362 34.3878C49.764 34.2681 49.4698 34.2065 49.1724 34.2069H19.2414ZM34.2069 48.4598C27.7732 48.4598 23.1723 44.2409 21.7556 38.4828H46.6582C45.2443 44.2409 40.6435 48.4598 34.2069 48.4598ZM43.4713 24.9426C42.3083 24.9426 41.4474 25.7607 41.3105 26.6814C41.2274 27.2424 40.9248 27.7473 40.4693 28.0852C40.0139 28.423 39.4428 28.5661 38.8819 28.483C38.3209 28.3998 37.8159 28.0972 37.4781 27.6417C37.1402 27.1863 36.9971 26.6152 37.0803 26.0543C37.5421 22.9471 40.2815 20.6667 43.4713 20.6667C46.6611 20.6667 49.4005 22.9471 49.8623 26.0543C49.9454 26.6152 49.8023 27.1863 49.4645 27.6417C49.1266 28.0972 48.6217 28.3998 48.0607 28.483C47.4997 28.5661 46.9287 28.423 46.4732 28.0852C46.0178 27.7473 45.7152 27.2424 45.632 26.6814C45.4952 25.7607 44.6343 24.9426 43.4713 24.9426ZM22.7818 26.6814C22.9186 25.7607 23.7795 24.9426 24.9426 24.9426C26.1084 24.9426 26.9665 25.7607 27.1033 26.6814C27.1864 27.2424 27.489 27.7473 27.9445 28.0852C28.4 28.423 28.971 28.5661 29.532 28.483C30.0929 28.3998 30.5979 28.0972 30.9358 27.6417C31.2736 27.1863 31.4167 26.6152 31.3335 26.0543C30.8746 22.9471 28.1323 20.6667 24.9426 20.6667C21.7528 20.6667 19.0134 22.9471 18.5516 26.0543C18.4684 26.6152 18.6115 27.1863 18.9493 27.6417C19.2872 28.0972 19.7922 28.3998 20.3531 28.483C20.9141 28.5661 21.4851 28.423 21.9406 28.0852C22.3961 27.7473 22.6987 27.2424 22.7818 26.6814ZM34.2069 5.70117C18.4632 5.70117 5.70117 18.4632 5.70117 34.2069C5.70117 49.9506 18.4632 62.7127 34.2069 62.7127C49.9506 62.7127 62.7127 49.9506 62.7127 34.2069C62.7127 18.4632 49.9506 5.70117 34.2069 5.70117ZM9.97703 34.2069C9.97703 27.7808 12.5298 21.6178 17.0738 17.0738C21.6178 12.5298 27.7808 9.97703 34.2069 9.97703C40.6331 9.97703 46.796 12.5298 51.34 17.0738C55.884 21.6178 58.4368 27.7808 58.4368 34.2069C58.4368 40.6331 55.884 46.796 51.34 51.34C46.796 55.884 40.6331 58.4368 34.2069 58.4368C27.7808 58.4368 21.6178 55.884 17.0738 51.34C12.5298 46.796 9.97703 40.6331 9.97703 34.2069Z" fill="#857EB9"/>
</g>
<defs>
<filter id="filter0_i_84_1590" x="0" y="0" width="68.4138" height="72.4138" filterUnits="userSpaceOnUse" color-interpolation-filters="sRGB">
<feFlood flood-opacity="0" result="BackgroundImageFix"/>
<feBlend mode="normal" in="SourceGraphic" in2="BackgroundImageFix" result="shape"/>
<feColorMatrix in="SourceAlpha" type="matrix" values="0 0 0 0 0 0 0 0 0 0 0 0 0 0 0 0 0 0 127 0" result="hardAlpha"/>
<feOffset dy="4"/>
<feGaussianBlur stdDeviation="2"/>
<feComposite in2="hardAlpha" operator="arithmetic" k2="-1" k3="1"/>
<feColorMatrix type="matrix" values="0 0 0 0 0 0 0 0 0 0 0 0 0 0 0 0 0 0 0.25 0"/>
<feBlend mode="normal" in2="shape" result="effect1_innerShadow_84_1590"/>
</filter>
</defs>
</svg>
