<svg width="99" height="99" viewBox="0 0 99 99" fill="none" xmlns="http://www.w3.org/2000/svg">
<g id="Play Button">
<circle id="Ellipse 1" cx="49.5" cy="49.5" r="49.5" fill="#5E63A3"/>
<path id="Vector" d="M73.1419 49.5C73.1433 50.0789 72.9972 50.6482 72.7176 51.1527C72.4381 51.6572 72.0348 52.0797 71.5468 52.3791L41.3061 71.1623C40.7963 71.4793 40.2123 71.6524 39.6146 71.6636C39.0169 71.6748 38.427 71.5238 37.906 71.2262C37.3899 70.9333 36.9599 70.506 36.6604 69.9884C36.3609 69.4707 36.2025 68.8815 36.2017 68.2811V30.7189C36.2025 30.1185 36.3609 29.5292 36.6604 29.0116C36.9599 28.494 37.3899 28.0667 37.906 27.7737C38.427 27.4761 39.0169 27.3252 39.6146 27.3364C40.2123 27.3476 40.7963 27.5207 41.3061 27.8377L71.5468 46.6209C72.0348 46.9203 72.4381 47.3428 72.7176 47.8473C72.9972 48.3518 73.1433 48.9211 73.1419 49.5Z" fill="white"/>
</g>
</svg>
