<svg width="77" height="77" viewBox="0 0 77 77" fill="none" xmlns="http://www.w3.org/2000/svg">
<g id="mood=bad, state=icon">
<path id="Vector" d="M67.3452 38.4828C67.3452 34.6926 66.5987 30.9395 65.1482 27.4378C63.6978 23.9361 61.5718 20.7543 58.8917 18.0742C56.2116 15.3941 53.0299 13.2682 49.5282 11.8177C46.0265 10.3673 42.2734 9.62073 38.4832 9.62073C34.6929 9.62073 30.9398 10.3673 27.4381 11.8177C23.9364 13.2682 20.7547 15.3941 18.0746 18.0742C15.3945 20.7543 13.2685 23.9361 11.8181 27.4378C10.3676 30.9395 9.62109 34.6926 9.62109 38.4828C9.62109 46.1375 12.6619 53.4787 18.0746 58.8914C23.4873 64.304 30.8285 67.3449 38.4832 67.3449C46.1379 67.3449 53.479 64.304 58.8917 58.8914C64.3044 53.4787 67.3452 46.1375 67.3452 38.4828ZM14.4314 38.4828C14.4314 32.1039 16.9655 25.9862 21.476 21.4757C25.9866 16.9651 32.1042 14.4311 38.4832 14.4311C44.8621 14.4311 50.9797 16.9651 55.4903 21.4757C60.0009 25.9862 62.5349 32.1039 62.5349 38.4828C62.5349 44.8617 60.0009 50.9794 55.4903 55.4899C50.9797 60.0005 44.8621 62.5345 38.4832 62.5345C32.1042 62.5345 25.9866 60.0005 21.476 55.4899C16.9655 50.9794 14.4314 44.8617 14.4314 38.4828ZM33.6728 32.4699C33.6728 32.9436 33.5795 33.4128 33.3982 33.8505C33.2169 34.2882 32.9511 34.6859 32.6161 35.0209C32.2811 35.3559 31.8834 35.6217 31.4457 35.803C31.008 35.9843 30.5388 36.0776 30.0651 36.0776C29.5913 36.0776 29.1221 35.9843 28.6844 35.803C28.2467 35.6217 27.849 35.3559 27.514 35.0209C27.179 34.6859 26.9132 34.2882 26.7319 33.8505C26.5506 33.4128 26.4573 32.9436 26.4573 32.4699C26.4573 31.513 26.8374 30.5954 27.514 29.9188C28.1906 29.2422 29.1082 28.8621 30.0651 28.8621C31.0219 28.8621 31.9395 29.2422 32.6161 29.9188C33.2927 30.5954 33.6728 31.513 33.6728 32.4699ZM50.509 32.4699C50.509 33.4267 50.1289 34.3443 49.4523 35.0209C48.7757 35.6975 47.8581 36.0776 46.9013 36.0776C45.9444 36.0776 45.0268 35.6975 44.3502 35.0209C43.6736 34.3443 43.2935 33.4267 43.2935 32.4699C43.2935 31.513 43.6736 30.5954 44.3502 29.9188C45.0268 29.2422 45.9444 28.8621 46.9013 28.8621C47.8581 28.8621 48.7757 29.2422 49.4523 29.9188C50.1289 30.5954 50.509 31.513 50.509 32.4699ZM29.4974 52.0576C33.947 46.7854 43.0145 46.7854 47.4689 52.0576C47.6677 52.3133 47.916 52.5262 48.1991 52.6836C48.4821 52.841 48.7941 52.9396 49.1162 52.9734C49.4382 53.0073 49.7639 52.9758 50.0735 52.8808C50.3831 52.7858 50.6703 52.6292 50.918 52.4205C51.1656 52.2117 51.3685 51.9551 51.5146 51.6661C51.6606 51.377 51.7468 51.0614 51.7679 50.7382C51.789 50.415 51.7446 50.0909 51.6374 49.7853C51.5302 49.4797 51.3624 49.1989 51.144 48.9597C44.7703 41.4075 32.1912 41.4075 25.8223 48.9597C25.604 49.1989 25.4361 49.4797 25.3289 49.7853C25.2217 50.0909 25.1773 50.415 25.1984 50.7382C25.2195 51.0614 25.3057 51.377 25.4518 51.6661C25.5978 51.9551 25.8007 52.2117 26.0484 52.4205C26.296 52.6292 26.5832 52.7858 26.8928 52.8808C27.2025 52.9758 27.5281 53.0073 27.8502 52.9734C28.1723 52.9396 28.4842 52.841 28.7672 52.6836C29.0503 52.5262 29.2987 52.3133 29.4974 52.0576Z" fill="white"/>
</g>
</svg>
