<svg width="69" height="69" viewBox="0 0 69 69" fill="none" xmlns="http://www.w3.org/2000/svg">
<path d="M19.2414 34.2069C18.944 34.2064 18.6499 34.268 18.3777 34.3877C18.1055 34.5074 17.8612 34.6826 17.6606 34.9021C17.4599 35.1215 17.3072 35.3804 17.2123 35.6622C17.1173 35.944 17.0822 36.2425 17.1092 36.5386C17.9073 45.3013 24.3781 52.7356 34.2069 52.7356C44.0357 52.7356 50.5037 45.3013 51.3047 36.5386C51.3316 36.2425 51.2965 35.944 51.2016 35.6622C51.1066 35.3804 50.954 35.1215 50.7533 34.9021C50.5526 34.6826 50.3084 34.5074 50.0362 34.3877C49.764 34.268 49.4698 34.2064 49.1724 34.2069H19.2414ZM34.2069 48.4597C27.7732 48.4597 23.1723 44.2409 21.7556 38.4827H46.6582C45.2443 44.2409 40.6435 48.4597 34.2069 48.4597ZM43.4713 24.9425C42.3083 24.9425 41.4474 25.7606 41.3105 26.6813C41.2274 27.2423 40.9248 27.7473 40.4693 28.0851C40.0139 28.423 39.4428 28.5661 38.8819 28.4829C38.3209 28.3997 37.8159 28.0971 37.4781 27.6417C37.1402 27.1862 36.9971 26.6152 37.0803 26.0542C37.5421 22.9471 40.2815 20.6666 43.4713 20.6666C46.6611 20.6666 49.4005 22.9471 49.8623 26.0542C49.9454 26.6152 49.8023 27.1862 49.4645 27.6417C49.1266 28.0971 48.6217 28.3997 48.0607 28.4829C47.4997 28.5661 46.9287 28.423 46.4732 28.0851C46.0178 27.7473 45.7152 27.2423 45.632 26.6813C45.4952 25.7606 44.6343 24.9425 43.4713 24.9425ZM22.7818 26.6813C22.9186 25.7606 23.7795 24.9425 24.9426 24.9425C26.1084 24.9425 26.9665 25.7606 27.1033 26.6813C27.1864 27.2423 27.489 27.7473 27.9445 28.0851C28.4 28.423 28.971 28.5661 29.532 28.4829C30.0929 28.3997 30.5979 28.0971 30.9358 27.6417C31.2736 27.1862 31.4167 26.6152 31.3335 26.0542C30.8746 22.9471 28.1323 20.6666 24.9426 20.6666C21.7528 20.6666 19.0134 22.9471 18.5516 26.0542C18.4684 26.6152 18.6115 27.1862 18.9493 27.6417C19.2872 28.0971 19.7922 28.3997 20.3531 28.4829C20.9141 28.5661 21.4851 28.423 21.9406 28.0851C22.3961 27.7473 22.6987 27.2423 22.7818 26.6813ZM34.2069 5.70111C18.4632 5.70111 5.70117 18.4631 5.70117 34.2069C5.70117 49.9506 18.4632 62.7126 34.2069 62.7126C49.9506 62.7126 62.7127 49.9506 62.7127 34.2069C62.7127 18.4631 49.9506 5.70111 34.2069 5.70111ZM9.97703 34.2069C9.97703 27.7807 12.5298 21.6177 17.0738 17.0737C21.6178 12.5298 27.7808 9.97697 34.2069 9.97697C40.6331 9.97697 46.796 12.5298 51.34 17.0737C55.884 21.6177 58.4368 27.7807 58.4368 34.2069C58.4368 40.633 55.884 46.796 51.34 51.34C46.796 55.884 40.6331 58.4367 34.2069 58.4367C27.7808 58.4367 21.6178 55.884 17.0738 51.34C12.5298 46.796 9.97703 40.633 9.97703 34.2069Z" fill="white"/>
</svg>
