<svg width="58" height="58" viewBox="0 0 58 58" fill="none" xmlns="http://www.w3.org/2000/svg">
<g id="mood=in love, state=icon" clip-path="url(#clip0_84_1609)">
<g id="Group">
<path id="Vector" d="M28.5057 53.4483C21.8906 53.4483 15.5463 50.8204 10.8687 46.1428C6.19108 41.4651 3.56322 35.1209 3.56322 28.5057C3.56322 21.8906 6.19108 15.5463 10.8687 10.8687C15.5463 6.19108 21.8906 3.56322 28.5057 3.56322C35.1209 3.56322 41.4651 6.19108 46.1428 10.8687C50.8204 15.5463 53.4483 21.8906 53.4483 28.5057C53.4483 35.1209 50.8204 41.4651 46.1428 46.1428C41.4651 50.8204 35.1209 53.4483 28.5057 53.4483ZM28.5057 57.0115C36.0659 57.0115 43.3165 54.0082 48.6624 48.6624C54.0082 43.3165 57.0115 36.0659 57.0115 28.5057C57.0115 20.9456 54.0082 13.695 48.6624 8.34914C43.3165 3.00328 36.0659 0 28.5057 0C20.9456 0 13.695 3.00328 8.34914 8.34914C3.00328 13.695 0 20.9456 0 28.5057C0 36.0659 3.00328 43.3165 8.34914 48.6624C13.695 54.0082 20.9456 57.0115 28.5057 57.0115Z" fill="white"/>
<path id="Vector_2" d="M40.3183 35.6821C40.6565 35.6024 41.0107 35.6235 41.3371 35.7425C41.6636 35.8616 41.9481 36.0736 42.1556 36.3523C42.3631 36.631 42.4846 36.9643 42.5051 37.3112C42.5256 37.6581 42.4442 38.0034 42.2709 38.3046C40.8639 40.7431 38.8393 42.768 36.4011 44.1754C33.9628 45.5828 31.1968 46.3231 28.3815 46.3218C25.5662 46.3231 22.8002 45.5828 20.3619 44.1754C17.9236 42.768 15.8991 40.7431 14.4921 38.3046C14.3188 38.0034 14.2374 37.6581 14.2579 37.3112C14.2784 36.9643 14.3999 36.631 14.6074 36.3523C14.8149 36.0736 15.0994 35.8616 15.4259 35.7425C15.7523 35.6235 16.1065 35.6024 16.4447 35.6821H16.4625L16.5231 35.6999L16.7618 35.7533L17.6598 35.9493C18.4259 36.1132 19.4948 36.3341 20.7134 36.5515C23.1828 36.9933 26.1367 37.4138 28.3815 37.4138C30.6263 37.4138 33.5838 36.9933 36.0495 36.5515C37.3723 36.3135 38.6898 36.0474 40.0011 35.7533L40.2399 35.6999L40.3005 35.6856L40.3183 35.6785V35.6821ZM16.9471 16.2697C19.6659 11.1956 31.2713 15.8421 20.3393 28.5058C4.31908 22.8189 11.9657 13.191 16.9471 16.2697ZM40.0653 16.2697C45.0467 13.191 52.6933 22.8189 36.6731 28.5058C25.7447 15.8421 37.3501 11.1956 40.0653 16.2697Z" fill="white"/>
</g>
</g>
<defs>
<clipPath id="clip0_84_1609">
<rect width="57.0115" height="57.0115" fill="white"/>
</clipPath>
</defs>
</svg>
