<svg width="69" height="69" viewBox="0 0 69 69" fill="none" xmlns="http://www.w3.org/2000/svg">
<g id="mood=sick, state=icon">
<path id="Vector" d="M20.8663 30.102L23.8879 27.0804L20.8663 24.0588L23.8879 21.0371L29.9311 27.0804L23.8879 33.1236L20.8663 30.102ZM12.8277 25.6551H13.0557C16.4479 17.3029 24.6291 11.4022 34.207 11.4022C40.4498 11.4022 46.0654 13.9107 50.1987 17.9585C50.6263 16.2482 51.4815 14.2528 52.5077 12.3714C47.3851 8.05906 40.903 5.69642 34.207 5.70106C20.2677 5.70106 8.69436 15.6781 6.21436 28.9047C7.81068 26.9093 10.2337 25.6551 12.8277 25.6551ZM59.8622 29.9309C58.6649 29.9309 57.5247 29.6744 56.47 29.3038C56.812 30.8716 57.0116 32.525 57.0116 34.2068C57.0116 46.8063 46.8065 57.0114 34.207 57.0114C24.6291 57.0114 16.4479 51.1107 13.0557 42.7585H12.8277C11.4024 42.7585 9.86309 42.3594 8.55183 41.6183C7.63964 41.1052 6.86999 40.4211 6.21436 39.6229C8.75137 52.7355 20.2677 62.7125 34.207 62.7125C49.8852 62.7125 62.7127 49.885 62.7127 34.2068C62.7127 32.639 62.5417 31.0997 62.3137 29.5889C61.5139 29.8042 60.6904 29.9191 59.8622 29.9309ZM59.8622 8.55163C59.8622 8.55163 54.161 16.8183 54.161 19.9539C54.161 23.0896 56.7265 25.6551 59.8622 25.6551C62.9978 25.6551 65.5633 23.0896 65.5633 19.9539C65.5633 16.8183 59.8622 8.55163 59.8622 8.55163ZM44.5261 21.0371L38.4829 27.0804L44.5261 33.1236L47.5477 30.102L44.5261 27.0804L47.5477 24.0588L44.5261 21.0371ZM24.401 48.4597C26.3679 45.0675 30.0167 42.7585 34.207 42.7585C38.3973 42.7585 42.0461 45.0675 44.013 48.4597H48.8019C46.5215 42.616 40.8488 38.4827 34.207 38.4827C31.727 38.4827 29.361 39.0528 27.2801 40.1075L17.1035 34.2068C17.1035 32.7815 16.3339 31.3562 14.9656 30.5296C12.9132 29.3608 10.3192 30.045 9.12194 32.0974C7.95321 34.2068 8.63734 36.7438 10.6898 37.9411C12.058 38.7392 13.6829 38.6537 14.9371 37.9411L23.4033 42.844C21.7785 44.3548 20.4672 46.2932 19.6121 48.4597H24.401Z" fill="white"/>
</g>
</svg>
