<svg width="58" height="58" viewBox="0 0 58 58" fill="none" xmlns="http://www.w3.org/2000/svg">
<path id="Vector" d="M29.2069 0.712524C44.9506 0.712524 57.7127 13.4745 57.7127 29.2183C57.7127 44.962 44.9506 57.724 29.2069 57.724C13.4632 57.724 0.701172 44.962 0.701172 29.2183C0.701172 13.4745 13.4632 0.712524 29.2069 0.712524ZM29.2069 4.98839C22.7808 4.98839 16.6178 7.54117 12.0738 12.0852C7.52982 16.6291 4.97703 22.7921 4.97703 29.2183C4.97703 35.6444 7.52982 41.8074 12.0738 46.3514C16.6178 50.8954 22.7808 53.4482 29.2069 53.4482C35.6331 53.4482 41.796 50.8954 46.34 46.3514C50.884 41.8074 53.4368 35.6444 53.4368 29.2183C53.4368 22.7921 50.884 16.6291 46.34 12.0852C41.796 7.54117 35.6331 4.98839 29.2069 4.98839ZM29.2069 33.4742C33.8562 33.4742 38.2147 35.3413 41.4102 38.5938C41.6118 38.793 41.7718 39.0304 41.8809 39.292C41.9899 39.5536 42.0458 39.8343 42.0454 40.1177C42.045 40.4012 41.9882 40.6817 41.8784 40.943C41.7685 41.2043 41.6078 41.4411 41.4056 41.6397C41.2034 41.8383 40.9637 41.9948 40.7005 42.0999C40.4373 42.205 40.1558 42.2568 39.8724 42.2521C39.589 42.2475 39.3094 42.1865 39.0497 42.0728C38.7901 41.9591 38.5557 41.7949 38.3601 41.5898C37.1674 40.3719 35.7433 39.4048 34.1714 38.7453C32.5994 38.0859 30.9115 37.7475 29.2069 37.75C27.4984 37.7471 25.8066 38.0866 24.2316 38.7486C22.6565 39.4105 21.2301 40.3815 20.0366 41.604C19.8429 41.8156 19.6087 41.986 19.3478 42.1051C19.0869 42.2243 18.8046 42.2897 18.5179 42.2975C18.2312 42.3053 17.9458 42.2554 17.6788 42.1506C17.4118 42.0459 17.1686 41.8884 16.9637 41.6877C16.7588 41.487 16.5964 41.2472 16.4861 40.9824C16.3758 40.7176 16.3199 40.4333 16.3218 40.1465C16.3237 39.8597 16.3832 39.5762 16.4969 39.3129C16.6106 39.0495 16.7762 38.8118 16.9837 38.6138C18.5749 36.9846 20.4762 35.6906 22.5755 34.8079C24.6748 33.9252 26.9296 33.4717 29.2069 33.4742ZM15.4215 14.3297C15.7416 13.9293 16.1949 13.6572 16.6987 13.563C17.2026 13.4688 17.7236 13.5588 18.1666 13.8166L18.4289 13.9962L25.5553 19.6973C25.9008 19.9745 26.1517 20.3521 26.2733 20.7781C26.3948 21.204 26.3811 21.6571 26.2341 22.0749C26.087 22.4927 25.8138 22.8545 25.4522 23.1103C25.0906 23.3661 24.6585 23.5033 24.2156 23.5029C24.2163 24.1504 24.0406 24.786 23.7073 25.3412C23.374 25.8964 22.8957 26.3503 22.3237 26.654C21.7518 26.9578 21.108 27.0999 20.4613 27.0652C19.8147 27.0305 19.1897 26.8202 18.6536 26.457C18.1175 26.0937 17.6905 25.5912 17.4186 25.0035C17.1466 24.4158 17.04 23.7651 17.1101 23.1214C17.1802 22.4776 17.4244 21.8651 17.8165 21.3497C18.2085 20.8343 18.7337 20.4355 19.3354 20.1962L15.7522 17.3342C15.3096 16.98 15.0259 16.4645 14.9633 15.901C14.9008 15.3376 15.0674 14.7724 15.4215 14.3297ZM32.8642 19.6973L39.9849 13.9962C40.4056 13.6551 40.9402 13.4863 41.4805 13.5241C42.0208 13.5618 42.5267 13.8032 42.8959 14.1996C43.265 14.5959 43.47 15.1176 43.4694 15.6592C43.4688 16.2009 43.2626 16.7221 42.8925 17.1176L42.6588 17.3342L39.0785 20.1962C39.666 20.4295 40.1809 20.815 40.5703 21.313C40.9596 21.811 41.2095 22.4037 41.2943 23.0302C41.379 23.6566 41.2956 24.2944 41.0525 24.8779C40.8094 25.4615 40.4154 25.9699 39.911 26.351C39.4066 26.732 38.8099 26.972 38.1821 27.0463C37.5543 27.1206 36.918 27.0266 36.3386 26.7738C35.7591 26.5211 35.2573 26.1187 34.8847 25.608C34.5121 25.0973 34.2821 24.4967 34.2182 23.8677L34.1983 23.4972C33.7834 23.4962 33.3777 23.3745 33.0308 23.147C32.6838 22.9194 32.4106 22.5958 32.2444 22.2157C32.0782 21.8355 32.0262 21.4152 32.0947 21.006C32.1633 20.5968 32.3494 20.2164 32.6305 19.9111L32.8642 19.6973Z" fill="white"/>
</svg>
